<svg width="200" height="60" xmlns="http://www.w3.org/2000/svg">

 <g>
  <title>Layer 1</title>
  <g stroke="null" id="etherscan-logo">
   <path stroke="null" fill="#21325b" d="m55.62328,23.01195q0,-2.19578 -1.5133,-2.19578a2.43326,2.43326 0 0 0 -0.62329,0.05919a4.47529,4.47529 0 0 1 -0.80122,0.08914a0.86619,0.86619 0 0 1 -0.65289,-0.28187a0.97446,0.97446 0 0 1 -0.26707,-0.69728q0,-1.0387 1.24226,-1.0387q0.02959,0 0.4432,0.02959q4.43559,0.29667 4.14037,0.29667l0.29378,0l7.12691,-0.20788q0.20716,0 1.53784,-0.08914q0.47279,-0.02959 0.85716,-0.02959q1.53784,0 1.53784,1.36496q0,0.23748 -0.08481,1.5133q-0.06352,0.94956 -0.06352,1.75078a14.27005,14.27005 0 0 0 0.04944,1.45411a12.38393,12.38393 0 0 1 0.09889,1.27582q0,1.12749 -1.0683,1.12749t-1.0683,-1.58007l0,-1.55192q0,-2.504 -1.03473,-2.95153q-0.7691,-0.32771 -3.9628,-0.32771a17.85679,17.85679 0 0 0 -2.48415,0.09059q-1.27185,0.33168 -1.27185,1.80852l0,2.96741q0,1.18704 0.52657,1.36496a2.8548,2.8548 0 0 0 0.70233,0.05919l1.20003,0q1.84389,0 1.84389,-1.27582a7.34706,7.34706 0 0 0 -0.07435,-0.91996a7.81697,7.81697 0 0 1 -0.07435,-1.01055q0,-1.18704 1.0535,-1.18704t1.0535,1.27582q0,0.23748 -0.192,1.84065a20.42467,20.42467 0 0 0 -0.16421,2.40367q0,0.59334 0.11874,2.107q0.02959,0.23748 0.14833,1.0387a8.11219,8.11219 0 0 1 0.08914,1.0387a0.94414,0.94414 0 0 1 -0.26707,0.80122a0.94414,0.94414 0 0 1 -0.80122,0.26707q-1.0387,0 -1.0387,-1.24623a8.703,8.703 0 0 1 0.07435,-0.94956a8.70409,8.70409 0 0 0 0.07435,-0.94956q0,-1.27582 -1.69123,-1.27582l-1.33537,0q-0.86041,0 -1.0535,0.29667a2.70683,2.70683 0 0 0 -0.19273,1.27654l0,1.84065q0,0.4746 0.02959,1.27582q0.02959,0.97915 0.02959,1.30578q0.02959,1.18704 0.4746,1.4837q0.32482,0.20788 1.54289,0.20788l4.03787,0q1.75078,0 2.40367,-0.51935t0.65289,-1.94351q0,-0.445 -0.04439,-1.32057t-0.04475,-1.32093q0,-1.33537 1.05386,-1.33537q1.11233,0 1.11233,1.36496q0,0.53415 -0.04439,1.63204t-0.04439,1.63204q0,0.41541 0.04439,1.23143t0.04439,1.23143q0,1.39456 -1.36496,1.39456q-0.32482,0 -1.0387,-0.06785q-0.35622,-0.03609 -1.30578,-0.03609q0.20788,0 -2.31452,-0.06785t-4.36197,-0.06569q-2.78948,0 -5.45986,0.20788a1.37543,1.37543 0 0 0 -0.26707,0.02959l-0.17721,0q-1.24623,0 -1.24623,-1.0683q0,-0.94956 0.92141,-0.94956q0.14833,0 0.80122,0.05919a2.3683,2.3683 0 0 0 0.62329,0.08914q1.5133,0 1.5133,-2.22538l-0.00253,-11.89743zm24.92703,11.74909l0,-1.89911q0.02959,-1.21663 1.0683,-1.21663t1.03726,1.36388q0,3.23448 -0.8254,4.51139q-1.11882,1.72118 -3.68382,1.72118q-2.35783,0 -3.35972,-1.5133q-0.73662,-1.09789 -0.73662,-3.73904l0,-7.12149q0,-0.62329 -0.57746,-0.62329l-0.97085,0a1.10367,1.10367 0 0 1 -0.80411,-0.31147a1.01849,1.01849 0 0 1 -0.31868,-0.75791a1.04664,1.04664 0 0 1 0.31147,-0.74167a0.94523,0.94523 0 0 1 0.69728,-0.32482l1.15744,0q0.50528,0 0.50528,-0.56374l0,-3.05655q0,-1.12749 1.15744,-1.12749q1.0683,0 1.0683,1.12749l0,3.17602q0,0.445 0.53415,0.445l3.23448,0q1.12749,0 1.12749,1.0387q0,1.09789 -1.21663,1.09789l-3.26444,0q-0.41541,0 -0.41541,0.62329l0,7.29978q0,3.11574 2.07632,3.11574q2.10628,-0.0018 2.19795,-2.52385zm8.24934,-15.03988l-0.12018,5.78107a7.99237,7.99237 0 0 1 2.17268,-1.55769a5.75003,5.75003 0 0 1 2.32102,-0.43021q2.55922,0 4.10717,1.45411a5.00764,5.00764 0 0 1 1.54759,3.82782l0,4.95567q0,1.75078 0.02959,1.92871q0.11874,1.4837 0.77163,1.4837a2.14886,2.14886 0 0 0 0.68248,-0.16602a2.16113,2.16113 0 0 1 0.47496,-0.04187q1.09789,0 1.09789,1.01055t-1.42415,1.01055a10.27333,10.27333 0 0 1 -1.12749,-0.08914a17.84415,17.84415 0 0 0 -2.01785,-0.14833a8.97297,8.97297 0 0 0 -1.18704,0.05919q-1.24623,0.17793 -1.54289,0.17793a1.30289,1.30289 0 0 1 -0.89037,-0.31147a1.00008,1.00008 0 0 1 -0.35622,-0.78642a0.83009,0.83009 0 0 1 0.31147,-0.65289a1.08273,1.08273 0 0 1 0.72687,-0.26707a2.49786,2.49786 0 0 1 0.77163,0.14833a1.59739,1.59739 0 0 0 0.50528,0.08914q0.89037,0 0.91996,-1.92871q0,-0.35622 0.05919,-1.39456l0,-2.87826q0,-3.0266 -0.59586,-4.0653q-0.86366,-1.54289 -3.03815,-1.54289q-2.35314,0 -3.42541,1.60244q-0.74456,1.09789 -0.77415,3.53115l0,2.13659a2.51483,2.51483 0 0 1 -0.11874,0.59334l0,0.56374q0,1.69123 0.03068,1.9583q0.15267,1.45411 0.88459,1.45411a2.57041,2.57041 0 0 0 0.68573,-0.13354a2.54803,2.54803 0 0 1 0.65614,-0.13354q0.97662,0 0.97662,0.94775q0,1.0701 -1.31444,1.0701q-0.41866,0 -1.25525,-0.08914a19.10446,19.10446 0 0 0 -1.94206,-0.11874q-0.5078,0 -1.40394,0.08914q-1.19534,0.11874 -1.52413,0.11874q-1.22493,0 -1.22493,-1.10078q0,-0.91707 1.14842,-0.91707a1.46782,1.46782 0 0 1 0.57385,0.08301a3.60911,3.60911 0 0 0 0.72507,0.12488q0.48362,0 0.64964,-0.90516a27.18272,27.18272 0 0 0 0.19489,-3.69717l0,-5.31153q0,-4.45111 -0.17793,-5.62299t-0.83009,-1.17224a3.27851,3.27851 0 0 0 -0.62329,0.08914a3.32255,3.32255 0 0 1 -0.65289,0.08914q-1.01055,0 -1.01055,-0.94956a0.89867,0.89867 0 0 1 0.35622,-0.71208a1.29928,1.29928 0 0 1 0.86041,-0.29667q0.14833,0 1.01055,0.08914a11.65453,11.65453 0 0 0 1.21663,0.05919a5.12782,5.12782 0 0 0 0.74167,-0.07435a5.04734,5.04734 0 0 1 0.68248,-0.07435q0.68248,0 0.68248,0.98348l0.00253,0.05955zm27.74466,10.38701a3.61524,3.61524 0 0 1 -0.1487,1.37471q-0.1487,0.25264 -0.86294,0.25264l-9.46236,0a0.83009,0.83009 0 0 0 -0.50528,0.1043a0.43562,0.43562 0 0 0 -0.1191,0.34323a5.37396,5.37396 0 0 0 1.33898,3.72857a4.29484,4.29484 0 0 0 3.33265,1.49164a4.27679,4.27679 0 0 0 2.39428,-0.7128a3.25722,3.25722 0 0 0 1.41333,-1.80997l0.26816,-0.86041a0.92285,0.92285 0 0 1 0.98168,-0.71208q1.10114,0 1.10114,1.12749q0,1.92871 -1.9583,3.42865a7.13232,7.13232 0 0 1 -4.45147,1.49706q-3.11394,0 -4.95458,-2.09328t-1.84065,-5.62299q0,-3.6203 1.9583,-5.87527a6.43937,6.43937 0 0 1 5.104,-2.25533a6.13873,6.13873 0 0 1 4.59945,1.86266a6.50975,6.50975 0 0 1 1.81033,4.73118l0.00108,0zm-10.77283,-0.74781q0,0.41541 0.65505,0.41541l7.11716,0q0.62546,0 0.62546,-0.41541a3.68129,3.68129 0 0 0 -1.19101,-2.72993a3.88629,3.88629 0 0 0 -2.79922,-1.15744a4.49911,4.49911 0 0 0 -3.03743,1.20183q-1.37002,1.20183 -1.37002,2.68554zm17.44824,-4.49514l0,0.81566a4.82033,4.82033 0 0 1 4.12449,-2.16547a4.81636,4.81636 0 0 1 3.36802,1.17224a3.88448,3.88448 0 0 1 1.29098,3.0118a3.29259,3.29259 0 0 1 -0.65289,2.12179a2.09617,2.09617 0 0 1 -1.72118,0.81602a1.69628,1.69628 0 0 1 -1.15744,-0.41541a1.29278,1.29278 0 0 1 -0.4746,-1.01055a1.18812,1.18812 0 0 1 0.35622,-0.84561a1.11882,1.11882 0 0 1 0.83009,-0.37102a1.80889,1.80889 0 0 1 0.38581,0.08914a1.47721,1.47721 0 0 0 0.17793,-0.65289a1.78831,1.78831 0 0 0 -0.75791,-1.45411a2.95947,2.95947 0 0 0 -1.88432,-0.59334q-2.31452,0 -3.08615,2.07704q-0.4746,1.27582 -0.4746,3.85742l0,1.9583q0,1.98826 0.02996,2.22538q0.14942,1.69123 0.92826,1.69123a3.42865,3.42865 0 0 0 0.80808,-0.10142a2.57221,2.57221 0 0 1 0.57024,-0.07615q0.95822,0 0.95822,0.93512q0,1.02318 -1.21663,1.02318l-0.11874,0a13.03899,13.03899 0 0 1 -1.35017,-0.10394a13.03899,13.03899 0 0 0 -1.35017,-0.10394q-1.18704,0 -1.86952,0.05919l-1.66019,0.14833q-1.21663,0 -1.21663,-1.0387q0,-0.91996 1.13795,-0.91996a2.504,2.504 0 0 1 0.44933,0.02959l0.44933,0.08914a2.54659,2.54659 0 0 0 0.41902,0.05919q0.74889,0 0.80844,-1.36496l0,-1.5133l-0.08914,-6.73604q-0.08914,-1.75078 -0.89037,-1.75078a3.95378,3.95378 0 0 0 -0.65289,0.07435a3.9527,3.9527 0 0 1 -0.65289,0.07435q-0.97915,0 -0.97915,-0.93512q0,-1.02318 1.27582,-1.02318a7.87111,7.87111 0 0 1 0.89037,0.07435a7.87111,7.87111 0 0 0 0.89037,0.07435a6.36394,6.36394 0 0 0 0.77163,-0.07435a1.9002,1.9002 0 0 1 0.56374,-0.07435q0.77127,0.00144 0.77127,0.84742zm16.33158,-1.35053a5.21985,5.21985 0 0 1 3.31244,1.0387l0,-0.11874q0,-1.09789 0.94956,-1.09789q0.97915,0 0.97915,0.94956q0,0.17793 -0.04944,0.89037a7.21822,7.21822 0 0 0 -0.09889,1.18704a10.3982,10.3982 0 0 0 0.07435,1.0387a10.3982,10.3982 0 0 1 0.07435,1.0387q0,1.12749 -0.96435,1.12749a0.86186,0.86186 0 0 1 -0.71244,-0.24109a0.86186,0.86186 0 0 1 -0.25264,-0.70847l0,-0.97915q-0.02959,-0.89037 -1.02824,-1.5281a4.25225,4.25225 0 0 0 -2.34015,-0.63809a3.70114,3.70114 0 0 0 -2.29503,0.69728a2.10122,2.10122 0 0 0 -0.92393,1.73598q0,1.89911 2.61949,2.25533l1.7266,0.23748q5.06033,0.68248 5.06033,4.18404a4.23854,4.23854 0 0 1 -1.62735,3.4568q-1.62699,1.32057 -4.26055,1.32057a6.76527,6.76527 0 0 1 -4.25875,-1.39456l0,0.56446q0,1.0683 -1.01055,1.0683q-1.09789,0 -1.09789,-1.21663a15.20265,15.20265 0 0 0 0.17793,-1.54289a5.86841,5.86841 0 0 0 0.05919,-0.83009a7.13557,7.13557 0 0 0 -0.11874,-1.33537a5.57355,5.57355 0 0 1 -0.11874,-0.97915q0,-1.0387 0.94956,-1.0387q0.62329,0 0.78642,0.29667a4.57058,4.57058 0 0 1 0.19309,1.57177q0.02959,1.27582 1.33537,2.07704a6.26433,6.26433 0 0 0 3.32327,0.80122a3.78668,3.78668 0 0 0 2.40367,-0.74167a2.27915,2.27915 0 0 0 0.94956,-1.86952q0,-2.01785 -3.20489,-2.34592q-3.05655,-0.32482 -4.65864,-1.20183t-1.60244,-3.07135a4.15517,4.15517 0 0 1 1.56744,-3.36802q1.5678,-1.29026 4.0819,-1.29026zm16.99168,5.549q0,-1.18704 1.4837,-1.36496a2.30983,2.30983 0 0 0 -0.99792,-1.63204a3.73831,3.73831 0 0 0 -2.18929,-0.59334a3.96388,3.96388 0 0 0 -3.30667,1.63204q-1.25128,1.63204 -1.25128,4.33093q0,2.78948 1.17549,4.37677a3.82566,3.82566 0 0 0 3.25866,1.58801a3.63293,3.63293 0 0 0 2.27554,-0.74095a3.73146,3.73146 0 0 0 1.32418,-2.04745q0.29775,-1.0387 0.35694,-1.18704a1.03437,1.03437 0 0 1 0.95353,-0.59334a1.13037,1.13037 0 0 1 0.83334,0.32482a1.12388,1.12388 0 0 1 0.32735,0.83009a4.43523,4.43523 0 0 1 -0.47496,1.78254a6.18096,6.18096 0 0 1 -1.12749,1.72118a5.93698,5.93698 0 0 1 -4.53882,1.87024a6.14992,6.14992 0 0 1 -4.88132,-2.13659q-1.85472,-2.13659 -1.85472,-5.60819q0,-3.68129 1.91283,-5.89007t5.08884,-2.21058a6.0153,6.0153 0 0 1 3.94656,1.29098a4.06025,4.06025 0 0 1 1.57285,3.27888a2.68879,2.68879 0 0 1 -0.60813,1.80997a1.95686,1.95686 0 0 1 -1.55769,0.71208a1.76125,1.76125 0 0 1 -1.23143,-0.445a1.42524,1.42524 0 0 1 -0.49012,-1.09897zm19.2582,10.17769q-2.43326,0 -2.99556,-2.107q-1.51583,2.22682 -4.74923,2.22682q-2.40367,0 -3.84262,-1.18704a3.90542,3.90542 0 0 1 -1.43931,-3.17602a3.8502,3.8502 0 0 1 2.107,-3.6203a5.52194,5.52194 0 0 1 1.37976,-0.57746q0.57746,-0.13354 2.32932,-0.34142q2.49245,-0.26707 3.2482,-0.74167t0.75791,-1.75078a2.34592,2.34592 0 0 0 -0.84561,-1.91283a3.60694,3.60694 0 0 0 -2.35891,-0.69584a4.53376,4.53376 0 0 0 -2.49245,0.74167q-0.445,0.29667 -0.445,0.62329q0,0.11874 0.26707,0.29667a1.15491,1.15491 0 0 1 0.41541,1.01055a1.25777,1.25777 0 0 1 -0.43021,0.97915a1.56166,1.56166 0 0 1 -1.08273,0.38581a1.72732,1.72732 0 0 1 -1.29098,-0.53415a1.80239,1.80239 0 0 1 -0.51935,-1.30578q0,-1.66019 1.64684,-2.84867a6.64365,6.64365 0 0 1 3.99095,-1.1892q5.40067,0 5.40067,5.1816l0,5.98138a12.63188,12.63188 0 0 0 0.05919,1.68762q0.17793,1.03618 1.01055,1.03618q1.0387,0 1.0387,-1.88612l0,-1.44364q0,-0.94306 0.90553,-0.94306q0.96399,0 0.96399,1.42415l0,1.84065q-0.06172,2.84506 -3.02912,2.84506l0,0.00036zm-3.32327,-5.90486l0,-2.10664a3.79606,3.79606 0 0 1 -1.37435,0.83009a13.73266,13.73266 0 0 1 -2.58593,0.41541q-3.36946,0.32482 -3.36946,2.49245a2.15753,2.15753 0 0 0 0.81602,1.78037a3.44129,3.44129 0 0 0 2.21058,0.65289q1.98826,0 3.13054,-1.08273a4.00395,4.00395 0 0 0 1.1726,-2.98185zm11.83968,-8.41175l0,0.84525a5.74281,5.74281 0 0 1 4.74778,-2.25533a5.99365,5.99365 0 0 1 3.0266,0.81602a4.26633,4.26633 0 0 1 1.92871,2.03265a7.03776,7.03776 0 0 1 0.41541,2.64078l0,5.63815q0,1.27582 0.02959,1.5133q0.14833,1.01055 0.80122,1.01055a4.29484,4.29484 0 0 0 0.69728,-0.07435a4.16636,4.16636 0 0 1 0.60813,-0.07435a0.93837,0.93837 0 0 1 0.66769,0.26707a0.86619,0.86619 0 0 1 0.28187,0.65289a0.92682,0.92682 0 0 1 -0.35622,0.74167a1.29928,1.29928 0 0 1 -0.86041,0.29667a12.53985,12.53985 0 0 1 -1.3646,-0.11982a14.39818,14.39818 0 0 0 -1.78037,-0.11874a11.26692,11.26692 0 0 0 -1.27582,0.05919q-1.4837,0.17793 -1.57285,0.17793q-1.18704,0 -1.18704,-1.0387q0,-0.91996 1.02896,-0.91996a2.85336,2.85336 0 0 1 0.54425,0.05919a5.06611,5.06611 0 0 0 0.72435,0.12091q0.72615,0 0.78679,-1.63204l0,-5.58004a10.4859,10.4859 0 0 0 -0.14797,-2.16547a2.85986,2.85986 0 0 0 -1.15275,-1.75078a3.77332,3.77332 0 0 0 -2.21671,-0.68248q-2.36505,0 -3.39942,1.69123q-0.70955,1.15744 -0.70955,3.94656l0,3.94656a5.88285,5.88285 0 0 0 0.17793,1.78037a0.65289,0.65289 0 0 0 0.65289,0.4746a2.87682,2.87682 0 0 0 0.65289,-0.10394a2.93457,2.93457 0 0 1 0.68248,-0.10394q0.91996,0 0.91996,0.99395q0,0.96435 -1.18704,0.96435q-0.23748,0 -1.54289,-0.17793a10.82191,10.82191 0 0 0 -1.45411,-0.08914a15.38852,15.38852 0 0 0 -1.66019,0.11874q-1.30578,0.14833 -1.4837,0.14833q-1.24623,0 -1.24623,-1.01055a0.84706,0.84706 0 0 1 0.24614,-0.71677a0.84706,0.84706 0 0 1 0.72182,-0.23279a3.19117,3.19117 0 0 1 0.55905,0.08914a3.7495,3.7495 0 0 0 0.80086,0.08914q0.90697,0 0.93837,-1.72118l0,-7.92127a3.7809,3.7809 0 0 0 -0.25697,-1.37976a0.70486,0.70486 0 0 0 -0.68032,-0.37102a3.17602,3.17602 0 0 0 -0.61932,0.08914a3.17602,3.17602 0 0 1 -0.61932,0.08914q-1.08815,0 -1.08815,-0.96435q0,-0.99395 1.33537,-0.99395a1.24839,1.24839 0 0 1 0.29667,0.02959l1.09789,0.11874a4.11222,4.11222 0 0 0 0.83009,-0.07435q0.77163,-0.07435 0.80122,-0.07435q0.85969,0 0.85969,0.90553z" id="Path_8"/>
   <g stroke="null" id="circle">
    <g stroke="null" id="Group_3">
     <path stroke="null" fill="#21325b" d="m10.92158,28.78328a1.85653,1.85653 0 0 1 1.86519,-1.85616l3.09228,0.01011a1.85905,1.85905 0 0 1 1.85905,1.85905l0,11.69351c0.34828,-0.10322 0.794,-0.2133 1.28448,-0.32879a1.54903,1.54903 0 0 0 1.19425,-1.50752l0,-14.50392a1.85941,1.85941 0 0 1 1.85905,-1.85941l3.10167,0a1.85941,1.85941 0 0 1 1.85905,1.85905l0,13.46198s0.77596,-0.31399 1.53134,-0.63304a1.55192,1.55192 0 0 0 0.94739,-1.42812l0,-16.04826a1.85905,1.85905 0 0 1 1.85869,-1.85905l3.09842,0a1.85905,1.85905 0 0 1 1.85725,1.85905l0,13.21547c2.68626,-1.94675 5.40861,-4.28834 7.56902,-7.10381a3.12044,3.12044 0 0 0 0.47496,-2.91327a21.88419,21.88419 0 1 0 -39.64786,18.08452a2.76746,2.76746 0 0 0 2.64042,1.36785c0.58612,-0.05161 1.31588,-0.12451 2.18351,-0.22629a1.54831,1.54831 0 0 0 1.37146,-1.53676l0,-11.60617" id="Path_1"/>
     <path stroke="null" fill="#979695" d="m10.85553,47.53657a21.89141,21.89141 0 0 0 34.76979,-17.70665c0,-0.50528 -0.02346,-1.00261 -0.05702,-1.4985c-7.99887,11.92991 -22.76806,17.50706 -34.71277,19.20515" id="Path_2"/>
    </g>
   </g>
  </g>
 </g>
</svg>