<svg xmlns="http://www.w3.org/2000/svg" width="200" height="60" stroke="none" stroke-linecap="round" stroke-linejoin="round" fill="#fff" fill-rule="nonzero" style=""><rect id="backgroundrect" width="100%" height="100%" x="0" y="0" fill="none" stroke="none" class="" style=""/><g class="currentLayer" style=""><title>Layer 1</title><g class="" id="svg_6"><path d="M62.79722766661184,39.92773071015709 V21.49989798216383 h-7.671044815385855 v-2.932202277049308 h19.773786739474115 v2.932202277049308 h-7.6547785465267255 v18.427832727993266 zm28.006687618041173,-0.5365636098374952 q-3.0478203645284094,0.8960800462690681 -5.777651120183262,0.8960800462690681 q-3.9746468484057114,0 -6.269083807597882,-2.2528782369893388 q-2.294468853836994,-2.252910131634161 -2.294468853836994,-6.153465720118781 q0,-3.6855537877407247 2.095733321952226,-5.9221976505157565 q2.108363601301667,-2.2528782369893388 5.560863219329344,-2.2528782369893388 q3.4814280608810693,0 5.08391070066383,2.1950532459273773 q1.6025145344275833,2.195085140572199 1.6025145344275833,6.94837595301303 h-9.837233407749485 q0.43360769635266105,4.516632547862918 4.9827408872890135,4.516632547862918 q2.1680065871184726,0 4.852674525705626,-0.9972498596438872 zm-9.895026504166625,-8.955569740939882 h5.690961475557551 q0,-4.059550392921399 -2.614244562820573,-4.059550392921399 q-2.655771390378585,0 -3.07671691273698,4.059550392921399 zm14.315911328274435,9.492133350777376 V17.120571880258854 h4.276338293775318 v22.807158829898242 zm22.56144248619093,-0.5365636098374952 q-3.0478203645284094,0.8960800462690681 -5.777683014828083,0.8960800462690681 q-3.9746149537608897,0 -6.269051912953061,-2.2528782369893388 q-2.294468853836994,-2.252910131634161 -2.294468853836994,-6.153465720118781 q0,-3.6855537877407247 2.095733321952226,-5.9221976505157565 q2.108363601301667,-2.2528782369893388 5.560863219329344,-2.2528782369893388 q3.4814280608810693,0 5.08391070066383,2.1950532459273773 q1.6025145344275833,2.195085140572199 1.6025145344275833,6.94837595301303 h-9.835415412994639 q0.43360769635266105,4.516632547862918 4.9827408872890135,4.516632547862918 q2.167974692473651,0 4.852674525705626,-0.9972498596438872 zm-9.895026504166625,-8.955569740939882 h5.690961475557551 q0,-4.059550392921399 -2.614244562820573,-4.059550392921399 q-2.655771390378585,0 -3.07671691273698,4.059550392921399 zm14.431529415753538,14.41704924700443 l0.3468861570821293,-3.1074314557003935 q2.643109216384321,1.214069655142623 5.058618247320126,1.214069655142623 q2.3486259607444455,0 3.4236030698191064,-1.0117300283929895 q1.0550748507058445,-1.0117300283929895 1.0550748507058445,-3.2790565394866142 v-2.167974692473651 q-1.5591378174699062,3.4236030698191064 -5.156183965830077,3.4236030698191064 q-2.8310324636744912,0 -4.491340094519215,-2.108363601301667 q-1.6620937309547457,-2.1228118754059517 -1.6620937309547457,-5.734306297870407 q0,-3.799385775109805 1.860829262839513,-6.081192454952536 q1.8608611574843348,-2.294436959192172 4.953844339080444,-2.294436959192172 q2.4263213155304024,0 4.491340094519215,1.9638170709691738 l0.44802407581212406,-1.6025145344275833 h3.842762492067481 v12.104559918843108 q0,3.6259745912135632 -0.448055970456945,5.228457230996324 q-0.4335758017078391,1.6025145344275833 -1.7036524531575798,2.7099922865756803 q-2.1372920441550587,1.848198983490072 -6.0233993585353955,1.848198983490072 q-2.7587273038634232,0 -5.961938377963745,-1.127348115872092 zm9.864311961203212,-10.832665272638524 V28.17184304850614 q-1.5446895433656214,-1.7470291701152552 -3.2519779860328875,-1.7470291701152552 q-1.6169628085318686,0 -2.570867845862896,1.4742342729542184 q-0.9539050373310306,1.4742342729542184 -0.9539050373310306,3.9746468484057114 q0,4.650303004311172 2.9899953734664484,4.650303004311172 q2.065018778988812,0 3.7704892269012342,-2.4841463065923644 zm9.54995834183934,5.9077493764114735 V24.065343738407023 h4.276338293775318 v2.9899953734664484 q1.6621256255995718,-3.35132980465286 5.05501415245526,-3.35132980465286 q0.4046792534992673,0 0.7949102328942493,0.08672153927053261 v3.7939636854900938 q-0.9105602150181727,-0.3324378829778452 -1.6892041790532932,-0.3324378829778452 q-2.556419571758611,0 -4.160720206296216,2.583530019857159 v10.068469582707689 zm21.231754743569205,-1.7054704479124219 q-2.137260149510237,2.0649868843439902 -4.578061633789746,2.0649868843439902 q-2.0776490583382534,0 -3.3784402527514077,-1.2718627515597631 q-1.3007911944131552,-1.271894646204585 -1.3007911944131552,-3.2935367082357203 q0,-2.6286928369248574 2.095733321952226,-4.046888218927136 q2.108363601301667,-1.4308894506413636 6.023367463890573,-1.4308894506413636 h1.1417963899763768 v-1.4453058301008268 q0,-2.469698032488079 -2.8183702896802285,-2.469698032488079 q-2.498594580696649,0 -5.05501415245526,1.4164092818922573 v-2.94483255639875 q2.9033057288407376,-1.0984515676635214 5.748754571974692,-1.0984515676635214 q6.2257389852850284,0 6.2257389852850284,4.953844339080444 v7.020649218179277 q0,1.860829262839513 1.1417963899763768,1.860829262839513 q0.2601646178115956,0 0.7226688623728263,-0.15896290979195754 v2.4823283118375206 q-1.3586161854751169,0.4046792534992673 -2.397424767321833,0.4046792534992673 q-2.6286928369248574,0 -3.3784402527514077,-2.0649868843439902 zm0,-2.294468853836994 v-3.221231548424652 h-1.0117300283929895 q-1.9331025280057594,0 -3.0478203645284094,0.6937404195194382 q-1.0984515676635214,0.6937404195194382 -1.0984515676635214,1.9060239745520335 q0,0.8816317721647863 0.5926025007894377,1.4868645523036599 q0.6070188802489009,0.5925706061446177 1.4868645523036599,0.5925706061446177 q1.4995267262979226,0 3.07671691273698,-1.4597541042051119 zm9.620413612250742,3.9981213069945722 V24.063525743652175 h4.101077220479411 v2.9899953734664484 q1.8789454210983076,-3.35132980465286 5.344075318475425,-3.35132980465286 q1.8066721559320609,0 2.9448644510435713,0.8816636668096028 q1.1562446640806614,0.8816317721647863 1.4164092818922573,2.469666137843257 q2.2221636940259253,-3.35132980465286 5.372971866683996,-3.35132980465286 q4.348611558941565,0 4.348611558941565,4.7948495346436655 v11.42526777342796 h-4.101109115124232 V29.895397760032537 q0,-2.8183702896802285 -1.8789135264534877,-2.8183702896802285 q-1.9204722486563184,0 -3.7397746839378208,2.7732074726125298 v10.068469582707689 h-4.101077220479411 V29.89179366516767 q0,-2.8310324636744912 -1.8915757004477483,-2.8310324636744912 q-1.8915438058029266,0 -3.7126642358392723,2.787655746716814 v10.068469582707689 z" fill="#000" id="svg_1" class=""/><path d="M1.754385888576508,29.76893699357682 c0,13.21127219951548 10.709679522205581,23.92098361636588 23.92095172172106,23.92098361636588 S49.59635312130827,42.98020919309229 49.59635312130827,29.76893699357682 s-10.709679522205581,-23.92098361636588 -23.921015511010705,-23.92098361636588 S1.754385888576508,16.55766479406133 1.754385888576508,29.76893699357682 " fill="#37aee2" id="svg_2" class=""/><path d="M17.946627277073862,31.70369654285051 l2.8380492855352917,7.855427757100803 s0.35473223970829526,0.73462935418101 0.7348845113395855,0.73462935418101 s6.030926494713344,-5.878884722847723 6.030926494713344,-5.878884722847723 l6.284329447822714,-12.13785792803709 l-15.78679666352236,7.399302441503939 z" fill="#c8daea" id="svg_3" class=""/><path d="M21.709589367797143,33.71835367766567 l-0.5449200067808146,5.790090031663772 s-0.22804671047602287,1.7737887771207628 1.5457101719999198,0 S26.1819840432922,36.36627898541808 26.1819840432922,36.36627898541808 " fill="#a9c6d8" id="svg_4" class=""/><path d="M17.99775439272324,31.982296265369115 l-5.837357895289712,-1.9021009332389496 s-0.69677041077751,-0.2828098156350897 -0.4729975827076092,-0.924817121253527 c0.04627912963646298,-0.1323946706553797 0.1393477032265368,-0.2448870829419439 0.41801121503478966,-0.4393168377757674 c1.2938062671971764,-0.9015021358887755 23.942129765882747,-9.042131806986303 23.942129765882747,-9.042131806986303 s0.6395833126119806,-0.21528885254729457 1.0176624323298484,-0.07214568658696012 c0.17270950171016194,0.0654797058191989 0.2829373942143758,0.1394433871610036 0.3757827052906995,0.4094953448673622 c0.03384021815595256,0.09829929534085356 0.05332784614208534,0.3073049028582495 0.05074437991151761,0.5153217763861648 c-0.0020731519134183783,0.1500005145970259 -0.020316888751500117,0.2888697981512348 -0.03368074493184321,0.5067740115739189 c-0.13788054956473308,2.2258634728252558 -4.265270852022146,18.836371233515973 -4.265270852022146,18.836371233515973 s-0.24686455092089601,0.9720530902346435 -1.1317176822126807,1.005095942270051 c-0.3227100163071868,0.012151859677113875 -0.7144081493639726,-0.05332784614208534 -1.1826853246379512,-0.4561253155968653 c-1.7362806748103017,-1.4936581116507075 -7.738278726670254,-5.5271824743975 -9.064202901203005,-6.4140768629578835 c-0.075048099265745,-0.04988322450132853 -0.09613045949296956,-0.11494829993784363 -0.10888831742169758,-0.17838674848844593 c-0.018626472575943586,-0.0932599414590057 0.08107618713706971,-0.209611605769009 0.08107618713706971,-0.209611605769009 s10.45066311160757,-9.289666145448457 10.728752519809031,-10.264334596558491 c0.021528885254729405,-0.07562220287253853 -0.05941972330305315,-0.11290704266924703 -0.16904161755565286,-0.08027882101652423 c-0.6940912606124777,0.2554123157331443 -12.726792544672016,7.853386499832208 -14.054598503249254,8.692630289028788 c-0.07759967085149144,0.04905396373596137 -0.2954082003397097,0.017446370717536314 -0.2954082003397097,0.017446370717536314 " id="svg_5" class=""/></g></g></svg>