<svg xmlns="http://www.w3.org/2000/svg" width="1920" height="941"><path d="M1029,492L902,509L945,633Z" fill="rgb(239,181,45)" stroke="rgb(239,181,45)" stroke-width="1.51"/><path d="M945,633L1087,698L1029,492Z" fill="rgb(217,184,61)" stroke="rgb(217,184,61)" stroke-width="1.51"/><path d="M902,509L769,536L945,633Z" fill="rgb(235,186,52)" stroke="rgb(235,186,52)" stroke-width="1.51"/><path d="M1087,698L1167,669L1029,492Z" fill="rgb(206,186,68)" stroke="rgb(206,186,68)" stroke-width="1.51"/><path d="M1029,492L1015,329L902,509Z" fill="rgb(252,180,34)" stroke="rgb(252,180,34)" stroke-width="1.51"/><path d="M902,509L835,349L769,536Z" fill="rgb(255,184,37)" stroke="rgb(255,184,37)" stroke-width="1.51"/><path d="M1181,331L1015,329L1029,492Z" fill="rgb(242,188,51)" stroke="rgb(242,188,51)" stroke-width="1.51"/><path d="M769,536L782,706L945,633Z" fill="rgb(220,190,65)" stroke="rgb(220,190,65)" stroke-width="1.51"/><path d="M945,633L971,809L1087,698Z" fill="rgb(195,185,75)" stroke="rgb(195,185,75)" stroke-width="1.51"/><path d="M1015,329L835,349L902,509Z" fill="rgb(255,187,40)" stroke="rgb(255,187,40)" stroke-width="1.51"/><path d="M1167,669L1217,605L1029,492Z" fill="rgb(209,186,67)" stroke="rgb(209,186,67)" stroke-width="1.51"/><path d="M782,706L971,809L945,633Z" fill="rgb(200,186,75)" stroke="rgb(200,186,75)" stroke-width="1.51"/><path d="M1087,698L1124,821L1167,669Z" fill="rgb(179,182,85)" stroke="rgb(179,182,85)" stroke-width="1.51"/><path d="M1015,329L983,265L835,349Z" fill="rgb(254,195,49)" stroke="rgb(254,195,49)" stroke-width="1.51"/><path d="M1114,191L983,265L1015,329Z" fill="rgb(245,201,61)" stroke="rgb(245,201,61)" stroke-width="1.51"/><path d="M835,349L732,387L769,536Z" fill="rgb(255,192,45)" stroke="rgb(255,192,45)" stroke-width="1.51"/><path d="M769,536L643,580L782,706Z" fill="rgb(223,195,67)" stroke="rgb(223,195,67)" stroke-width="1.51"/><path d="M656,231L732,387L835,349Z" fill="rgb(254,204,59)" stroke="rgb(254,204,59)" stroke-width="1.51"/><path d="M1217,605L1181,331L1029,492Z" fill="rgb(234,182,49)" stroke="rgb(234,182,49)" stroke-width="1.51"/><path d="M971,809L1124,821L1087,698Z" fill="rgb(187,167,87)" stroke="rgb(187,167,87)" stroke-width="1.51"/><path d="M1167,669L1342,628L1217,605Z" fill="rgb(184,189,81)" stroke="rgb(184,189,81)" stroke-width="1.51"/><path d="M782,706L940,862L971,809Z" fill="rgb(197,162,85)" stroke="rgb(197,162,85)" stroke-width="1.51"/><path d="M971,809L1012,980L1124,821Z" fill="rgb(185,137,94)" stroke="rgb(185,137,94)" stroke-width="1.51"/><path d="M732,387L643,580L769,536Z" fill="rgb(248,191,50)" stroke="rgb(248,191,50)" stroke-width="1.51"/><path d="M782,706L685,815L940,862Z" fill="rgb(197,167,89)" stroke="rgb(197,167,89)" stroke-width="1.51"/><path d="M1217,605L1331,514L1181,331Z" fill="rgb(221,184,58)" stroke="rgb(221,184,58)" stroke-width="1.51"/><path d="M1342,628L1331,514L1217,605Z" fill="rgb(190,188,77)" stroke="rgb(190,188,77)" stroke-width="1.51"/><path d="M1263,855L1342,628L1167,669Z" fill="rgb(162,188,92)" stroke="rgb(162,188,92)" stroke-width="1.51"/><path d="M983,265L858,184L835,349Z" fill="rgb(254,202,57)" stroke="rgb(254,202,57)" stroke-width="1.51"/><path d="M1046,57L858,184L983,265Z" fill="rgb(249,177,60)" stroke="rgb(249,177,60)" stroke-width="1.51"/><path d="M1331,514L1350,464L1181,331Z" fill="rgb(219,187,63)" stroke="rgb(219,187,63)" stroke-width="1.51"/><path d="M1528,581L1350,464L1331,514Z" fill="rgb(193,188,76)" stroke="rgb(193,188,76)" stroke-width="1.51"/><path d="M557,703L685,815L782,706Z" fill="rgb(197,189,88)" stroke="rgb(197,189,88)" stroke-width="1.51"/><path d="M1181,331L1114,191L1015,329Z" fill="rgb(238,199,63)" stroke="rgb(238,199,63)" stroke-width="1.51"/><path d="M1145,109L1114,191L1318,77Z" fill="rgb(221,167,76)" stroke="rgb(221,167,76)" stroke-width="1.51"/><path d="M1124,821L1263,855L1167,669Z" fill="rgb(171,167,94)" stroke="rgb(171,167,94)" stroke-width="1.51"/><path d="M1151,1028L1263,855L1124,821Z" fill="rgb(167,130,104)" stroke="rgb(167,130,104)" stroke-width="1.51"/><path d="M858,184L788,172L835,349Z" fill="rgb(254,209,64)" stroke="rgb(254,209,64)" stroke-width="1.51"/><path d="M465,514L557,703L643,580Z" fill="rgb(223,203,74)" stroke="rgb(223,203,74)" stroke-width="1.51"/><path d="M815,40L788,172L858,184Z" fill="rgb(246,171,67)" stroke="rgb(246,171,67)" stroke-width="1.51"/><path d="M940,862L1012,980L971,809Z" fill="rgb(191,131,92)" stroke="rgb(191,131,92)" stroke-width="1.51"/><path d="M938,1029L1012,980L940,862Z" fill="rgb(188,112,95)" stroke="rgb(188,112,95)" stroke-width="1.51"/><path d="M643,580L557,703L782,706Z" fill="rgb(208,200,79)" stroke="rgb(208,200,79)" stroke-width="1.51"/><path d="M545,353L643,580L732,387Z" fill="rgb(254,197,51)" stroke="rgb(254,197,51)" stroke-width="1.51"/><path d="M685,815L755,949L940,862Z" fill="rgb(192,141,97)" stroke="rgb(192,141,97)" stroke-width="1.51"/><path d="M633,884L755,949L685,815Z" fill="rgb(191,145,102)" stroke="rgb(191,145,102)" stroke-width="1.51"/><path d="M788,172L656,231L835,349Z" fill="rgb(253,211,65)" stroke="rgb(253,211,65)" stroke-width="1.51"/><path d="M656,231L545,353L732,387Z" fill="rgb(253,209,64)" stroke="rgb(253,209,64)" stroke-width="1.51"/><path d="M557,703L633,884L685,815Z" fill="rgb(194,173,98)" stroke="rgb(194,173,98)" stroke-width="1.51"/><path d="M1012,980L1151,1028L1124,821Z" fill="rgb(174,116,102)" stroke="rgb(174,116,102)" stroke-width="1.51"/><path d="M755,949L938,1029L940,862Z" fill="rgb(188,116,99)" stroke="rgb(188,116,99)" stroke-width="1.51"/><path d="M1114,191L1046,57L983,265Z" fill="rgb(240,180,67)" stroke="rgb(240,180,67)" stroke-width="1.51"/><path d="M1318,77L1114,191L1181,331Z" fill="rgb(224,194,77)" stroke="rgb(224,194,77)" stroke-width="1.51"/><path d="M564,70L462,354L545,353Z" fill="rgb(252,222,77)" stroke="rgb(252,222,77)" stroke-width="1.51"/><path d="M788,172L694,157L656,231Z" fill="rgb(250,196,71)" stroke="rgb(250,196,71)" stroke-width="1.51"/><path d="M815,40L694,157L788,172Z" fill="rgb(245,171,70)" stroke="rgb(245,171,70)" stroke-width="1.51"/><path d="M1145,109L1046,57L1114,191Z" fill="rgb(230,163,71)" stroke="rgb(230,163,71)" stroke-width="1.51"/><path d="M1142,1079L1151,1028L1012,980Z" fill="rgb(173,116,102)" stroke="rgb(173,116,102)" stroke-width="1.51"/><path d="M545,353L465,514L643,580Z" fill="rgb(252,199,55)" stroke="rgb(252,199,55)" stroke-width="1.51"/><path d="M557,703L445,903L633,884Z" fill="rgb(192,168,104)" stroke="rgb(192,168,104)" stroke-width="1.51"/><path d="M1350,464L1407,263L1181,331Z" fill="rgb(214,196,73)" stroke="rgb(214,196,73)" stroke-width="1.51"/><path d="M1480,301L1407,263L1350,464Z" fill="rgb(202,199,81)" stroke="rgb(202,199,81)" stroke-width="1.51"/><path d="M465,514L456,700L557,703Z" fill="rgb(213,208,83)" stroke="rgb(213,208,83)" stroke-width="1.51"/><path d="M955,9L815,40L858,184Z" fill="rgb(241,148,66)" stroke="rgb(241,148,66)" stroke-width="1.51"/><path d="M1046,57L955,9L858,184Z" fill="rgb(242,146,62)" stroke="rgb(242,146,62)" stroke-width="1.51"/><path d="M1047,-22L955,9L1046,57Z" fill="rgb(230,121,66)" stroke="rgb(230,121,66)" stroke-width="1.51"/><path d="M465,514L358,562L456,700Z" fill="rgb(223,197,77)" stroke="rgb(223,197,77)" stroke-width="1.51"/><path d="M545,353L462,354L465,514Z" fill="rgb(254,208,63)" stroke="rgb(254,208,63)" stroke-width="1.51"/><path d="M564,70L545,353L656,231Z" fill="rgb(251,214,76)" stroke="rgb(251,214,76)" stroke-width="1.51"/><path d="M564,70L656,231L694,157Z" fill="rgb(247,188,75)" stroke="rgb(247,188,75)" stroke-width="1.51"/><path d="M1373,1052L1469,847L1263,855Z" fill="rgb(142,130,115)" stroke="rgb(142,130,115)" stroke-width="1.51"/><path d="M1005,1163L1142,1079L1012,980Z" fill="rgb(178,114,100)" stroke="rgb(178,114,100)" stroke-width="1.51"/><path d="M1342,628L1528,581L1331,514Z" fill="rgb(179,189,83)" stroke="rgb(179,189,83)" stroke-width="1.51"/><path d="M1524,697L1528,581L1342,628Z" fill="rgb(156,188,94)" stroke="rgb(156,188,94)" stroke-width="1.51"/><path d="M1524,697L1342,628L1469,847Z" fill="rgb(135,187,104)" stroke="rgb(135,187,104)" stroke-width="1.51"/><path d="M1121,-117L1047,-22L1145,109Z" fill="rgb(219,118,71)" stroke="rgb(219,118,71)" stroke-width="1.51"/><path d="M1540,333L1480,301L1350,464Z" fill="rgb(198,195,82)" stroke="rgb(198,195,82)" stroke-width="1.51"/><path d="M1469,847L1342,628L1263,855Z" fill="rgb(148,171,104)" stroke="rgb(148,171,104)" stroke-width="1.51"/><path d="M755,949L887,1118L938,1029Z" fill="rgb(188,117,99)" stroke="rgb(188,117,99)" stroke-width="1.51"/><path d="M938,1029L1005,1163L1012,980Z" fill="rgb(186,112,97)" stroke="rgb(186,112,97)" stroke-width="1.51"/><path d="M649,1051L887,1118L755,949Z" fill="rgb(188,122,103)" stroke="rgb(188,122,103)" stroke-width="1.51"/><path d="M1373,1052L1263,855L1151,1028Z" fill="rgb(154,120,111)" stroke="rgb(154,120,111)" stroke-width="1.51"/><path d="M883,-136L773,-108L815,40Z" fill="rgb(234,120,68)" stroke="rgb(234,120,68)" stroke-width="1.51"/><path d="M1145,109L1047,-22L1046,57Z" fill="rgb(226,135,69)" stroke="rgb(226,135,69)" stroke-width="1.51"/><path d="M1318,77L1181,331L1407,263Z" fill="rgb(213,204,83)" stroke="rgb(213,204,83)" stroke-width="1.51"/><path d="M1366,-24L1318,77L1528,62Z" fill="rgb(191,141,88)" stroke="rgb(191,141,88)" stroke-width="1.51"/><path d="M633,884L649,1051L755,949Z" fill="rgb(188,126,107)" stroke="rgb(188,126,107)" stroke-width="1.51"/><path d="M521,1076L649,1051L633,884Z" fill="rgb(187,130,110)" stroke="rgb(187,130,110)" stroke-width="1.51"/><path d="M1528,62L1318,77L1407,263Z" fill="rgb(194,175,90)" stroke="rgb(194,175,90)" stroke-width="1.51"/><path d="M1528,581L1540,333L1350,464Z" fill="rgb(200,183,74)" stroke="rgb(200,183,74)" stroke-width="1.51"/><path d="M1615,505L1540,333L1528,581Z" fill="rgb(198,168,79)" stroke="rgb(198,168,79)" stroke-width="1.51"/><path d="M887,1118L1005,1163L938,1029Z" fill="rgb(188,113,96)" stroke="rgb(188,113,96)" stroke-width="1.51"/><path d="M666,1141L1005,1163L887,1118Z" fill="rgb(188,117,100)" stroke="rgb(188,117,100)" stroke-width="1.51"/><path d="M456,700L445,903L557,703Z" fill="rgb(194,190,100)" stroke="rgb(194,190,100)" stroke-width="1.51"/><path d="M311,384L358,562L465,514Z" fill="rgb(247,184,61)" stroke="rgb(247,184,61)" stroke-width="1.51"/><path d="M1524,697L1595,637L1528,581Z" fill="rgb(156,175,99)" stroke="rgb(156,175,99)" stroke-width="1.51"/><path d="M1718,611L1595,637L1814,796Z" fill="rgb(142,153,110)" stroke="rgb(142,153,110)" stroke-width="1.51"/><path d="M270,726L445,903L456,700Z" fill="rgb(192,172,100)" stroke="rgb(192,172,100)" stroke-width="1.51"/><path d="M815,40L564,70L694,157Z" fill="rgb(243,162,73)" stroke="rgb(243,162,73)" stroke-width="1.51"/><path d="M462,354L311,384L465,514Z" fill="rgb(251,195,64)" stroke="rgb(251,195,64)" stroke-width="1.51"/><path d="M570,-39L564,70L815,40Z" fill="rgb(236,140,75)" stroke="rgb(236,140,75)" stroke-width="1.51"/><path d="M1142,1079L1373,1052L1151,1028Z" fill="rgb(159,119,108)" stroke="rgb(159,119,108)" stroke-width="1.51"/><path d="M1707,916L1595,637L1524,697Z" fill="rgb(135,155,113)" stroke="rgb(135,155,113)" stroke-width="1.51"/><path d="M1369,1128L1373,1052L1142,1079Z" fill="rgb(150,121,112)" stroke="rgb(150,121,112)" stroke-width="1.51"/><path d="M1595,637L1615,505L1528,581Z" fill="rgb(173,169,93)" stroke="rgb(173,169,93)" stroke-width="1.51"/><path d="M346,238L368,300L462,354Z" fill="rgb(250,204,75)" stroke="rgb(250,204,75)" stroke-width="1.51"/><path d="M521,1076L666,1141L649,1051Z" fill="rgb(187,130,109)" stroke="rgb(187,130,109)" stroke-width="1.51"/><path d="M649,1051L666,1141L887,1118Z" fill="rgb(188,123,104)" stroke="rgb(188,123,104)" stroke-width="1.51"/><path d="M368,300L311,384L462,354Z" fill="rgb(250,197,71)" stroke="rgb(250,197,71)" stroke-width="1.51"/><path d="M358,562L270,726L456,700Z" fill="rgb(204,188,87)" stroke="rgb(204,188,87)" stroke-width="1.51"/><path d="M1718,611L1649,447L1615,505Z" fill="rgb(185,155,90)" stroke="rgb(185,155,90)" stroke-width="1.51"/><path d="M1615,505L1649,447L1540,333Z" fill="rgb(197,166,85)" stroke="rgb(197,166,85)" stroke-width="1.51"/><path d="M1528,62L1407,263L1480,301Z" fill="rgb(194,196,95)" stroke="rgb(194,196,95)" stroke-width="1.51"/><path d="M883,-136L815,40L955,9Z" fill="rgb(234,117,66)" stroke="rgb(234,117,66)" stroke-width="1.51"/><path d="M1318,77L1121,-117L1145,109Z" fill="rgb(212,130,76)" stroke="rgb(212,130,76)" stroke-width="1.51"/><path d="M445,903L521,1076L633,884Z" fill="rgb(187,134,113)" stroke="rgb(187,134,113)" stroke-width="1.51"/><path d="M883,-136L955,9L1047,-22Z" fill="rgb(234,113,62)" stroke="rgb(234,113,62)" stroke-width="1.51"/><path d="M1021,-249L883,-136L1047,-22Z" fill="rgb(231,113,64)" stroke="rgb(231,113,64)" stroke-width="1.51"/><path d="M1373,1052L1552,1055L1469,847Z" fill="rgb(131,120,120)" stroke="rgb(131,120,120)" stroke-width="1.51"/><path d="M1005,1163L1369,1128L1142,1079Z" fill="rgb(165,118,106)" stroke="rgb(165,118,106)" stroke-width="1.51"/><path d="M1318,77L1366,-24L1121,-117Z" fill="rgb(203,124,80)" stroke="rgb(203,124,80)" stroke-width="1.51"/><path d="M1528,62L1480,301L1661,102Z" fill="rgb(191,164,98)" stroke="rgb(191,164,98)" stroke-width="1.51"/><path d="M564,70L346,238L462,354Z" fill="rgb(250,217,82)" stroke="rgb(250,217,82)" stroke-width="1.51"/><path d="M368,300L346,238L311,384Z" fill="rgb(248,194,75)" stroke="rgb(248,194,75)" stroke-width="1.51"/><path d="M376,35L346,238L564,70Z" fill="rgb(242,173,83)" stroke="rgb(242,173,83)" stroke-width="1.51"/><path d="M773,-108L570,-39L815,40Z" fill="rgb(234,127,72)" stroke="rgb(234,127,72)" stroke-width="1.51"/><path d="M192,540L270,726L358,562Z" fill="rgb(215,171,80)" stroke="rgb(215,171,80)" stroke-width="1.51"/><path d="M363,1062L498,1131L521,1076Z" fill="rgb(185,133,114)" stroke="rgb(185,133,114)" stroke-width="1.51"/><path d="M1661,102L1480,301L1540,333Z" fill="rgb(194,191,99)" stroke="rgb(194,191,99)" stroke-width="1.51"/><path d="M363,1062L521,1076L445,903Z" fill="rgb(185,130,114)" stroke="rgb(185,130,114)" stroke-width="1.51"/><path d="M521,1076L498,1131L666,1141Z" fill="rgb(187,132,111)" stroke="rgb(187,132,111)" stroke-width="1.51"/><path d="M666,1141L297,1168L1005,1163Z" fill="rgb(187,127,107)" stroke="rgb(187,127,107)" stroke-width="1.51"/><path d="M1649,447L1695,270L1540,333Z" fill="rgb(195,170,93)" stroke="rgb(195,170,93)" stroke-width="1.51"/><path d="M1595,637L1718,611L1615,505Z" fill="rgb(169,160,97)" stroke="rgb(169,160,97)" stroke-width="1.51"/><path d="M1707,916L1524,697L1469,847Z" fill="rgb(134,141,116)" stroke="rgb(134,141,116)" stroke-width="1.51"/><path d="M1337,-150L1212,-168L1366,-24Z" fill="rgb(199,125,82)" stroke="rgb(199,125,82)" stroke-width="1.51"/><path d="M1366,-24L1212,-168L1121,-117Z" fill="rgb(206,123,78)" stroke="rgb(206,123,78)" stroke-width="1.51"/><path d="M1121,-117L1021,-249L1047,-22Z" fill="rgb(224,117,68)" stroke="rgb(224,117,68)" stroke-width="1.51"/><path d="M1553,1120L1552,1055L1373,1052Z" fill="rgb(130,116,121)" stroke="rgb(130,116,121)" stroke-width="1.51"/><path d="M1552,1055L1628,958L1469,847Z" fill="rgb(128,108,122)" stroke="rgb(128,108,122)" stroke-width="1.51"/><path d="M1855,388L1695,270L1649,447Z" fill="rgb(193,151,96)" stroke="rgb(193,151,96)" stroke-width="1.51"/><path d="M311,384L192,540L358,562Z" fill="rgb(241,168,64)" stroke="rgb(241,168,64)" stroke-width="1.51"/><path d="M91,450L192,540L311,384Z" fill="rgb(243,152,62)" stroke="rgb(243,152,62)" stroke-width="1.51"/><path d="M1528,62L1506,-26L1366,-24Z" fill="rgb(184,126,90)" stroke="rgb(184,126,90)" stroke-width="1.51"/><path d="M1659,-93L1506,-26L1528,62Z" fill="rgb(180,109,93)" stroke="rgb(180,109,93)" stroke-width="1.51"/><path d="M346,238L165,224L311,384Z" fill="rgb(245,184,78)" stroke="rgb(245,184,78)" stroke-width="1.51"/><path d="M419,-56L376,35L564,70Z" fill="rgb(235,140,82)" stroke="rgb(235,140,82)" stroke-width="1.51"/><path d="M1524,-132L1337,-150L1366,-24Z" fill="rgb(187,128,87)" stroke="rgb(187,128,87)" stroke-width="1.51"/><path d="M237,907L445,903L270,726Z" fill="rgb(187,139,105)" stroke="rgb(187,139,105)" stroke-width="1.51"/><path d="M263,1027L363,1062L445,903Z" fill="rgb(181,115,112)" stroke="rgb(181,115,112)" stroke-width="1.51"/><path d="M1337,-150L1021,-249L1212,-168Z" fill="rgb(210,121,76)" stroke="rgb(210,121,76)" stroke-width="1.51"/><path d="M1212,-168L1021,-249L1121,-117Z" fill="rgb(218,119,72)" stroke="rgb(218,119,72)" stroke-width="1.51"/><path d="M719,-255L613,-187L773,-108Z" fill="rgb(234,128,73)" stroke="rgb(234,128,73)" stroke-width="1.51"/><path d="M773,-108L613,-187L570,-39Z" fill="rgb(234,130,75)" stroke="rgb(234,130,75)" stroke-width="1.51"/><path d="M570,-39L419,-56L564,70Z" fill="rgb(235,137,80)" stroke="rgb(235,137,80)" stroke-width="1.51"/><path d="M1552,1055L1676,1199L1628,958Z" fill="rgb(126,98,124)" stroke="rgb(126,98,124)" stroke-width="1.51"/><path d="M1369,1128L1553,1120L1373,1052Z" fill="rgb(132,124,119)" stroke="rgb(132,124,119)" stroke-width="1.51"/><path d="M1676,1199L1553,1120L1369,1128Z" fill="rgb(128,110,122)" stroke="rgb(128,110,122)" stroke-width="1.51"/><path d="M112,838L237,907L270,726Z" fill="rgb(184,127,101)" stroke="rgb(184,127,101)" stroke-width="1.51"/><path d="M1628,958L1707,916L1469,847Z" fill="rgb(129,111,122)" stroke="rgb(129,111,122)" stroke-width="1.51"/><path d="M1814,1036L1707,916L1628,958Z" fill="rgb(122,83,125)" stroke="rgb(122,83,125)" stroke-width="1.51"/><path d="M1695,270L1661,102L1540,333Z" fill="rgb(193,181,104)" stroke="rgb(193,181,104)" stroke-width="1.51"/><path d="M719,-255L773,-108L883,-136Z" fill="rgb(234,122,69)" stroke="rgb(234,122,69)" stroke-width="1.51"/><path d="M613,-187L419,-56L570,-39Z" fill="rgb(235,137,80)" stroke="rgb(235,137,80)" stroke-width="1.51"/><path d="M1021,-249L719,-255L883,-136Z" fill="rgb(234,118,66)" stroke="rgb(234,118,66)" stroke-width="1.51"/><path d="M237,907L263,1027L445,903Z" fill="rgb(180,107,111)" stroke="rgb(180,107,111)" stroke-width="1.51"/><path d="M363,1062L297,1168L498,1131Z" fill="rgb(183,120,113)" stroke="rgb(183,120,113)" stroke-width="1.51"/><path d="M215,87L346,238L376,35Z" fill="rgb(238,154,83)" stroke="rgb(238,154,83)" stroke-width="1.51"/><path d="M215,87L165,224L346,238Z" fill="rgb(240,164,82)" stroke="rgb(240,164,82)" stroke-width="1.51"/><path d="M1707,916L1814,796L1595,637Z" fill="rgb(132,132,118)" stroke="rgb(132,132,118)" stroke-width="1.51"/><path d="M1718,611L1865,507L1649,447Z" fill="rgb(182,142,95)" stroke="rgb(182,142,95)" stroke-width="1.51"/><path d="M1695,270L1827,263L1661,102Z" fill="rgb(190,158,107)" stroke="rgb(190,158,107)" stroke-width="1.51"/><path d="M1862,854L1814,796L1707,916Z" fill="rgb(126,98,124)" stroke="rgb(126,98,124)" stroke-width="1.51"/><path d="M1337,-150L1890,-264L1021,-249Z" fill="rgb(187,128,88)" stroke="rgb(187,128,88)" stroke-width="1.51"/><path d="M1506,-26L1524,-132L1366,-24Z" fill="rgb(183,125,90)" stroke="rgb(183,125,90)" stroke-width="1.51"/><path d="M1659,-93L1524,-132L1506,-26Z" fill="rgb(180,109,93)" stroke="rgb(180,109,93)" stroke-width="1.51"/><path d="M165,224L91,450L311,384Z" fill="rgb(243,162,72)" stroke="rgb(243,162,72)" stroke-width="1.51"/><path d="M74,709L112,838L270,726Z" fill="rgb(186,138,95)" stroke="rgb(186,138,95)" stroke-width="1.51"/><path d="M237,907L96,964L263,1027Z" fill="rgb(175,86,108)" stroke="rgb(175,86,108)" stroke-width="1.51"/><path d="M221,-15L215,87L376,35Z" fill="rgb(228,113,81)" stroke="rgb(228,113,81)" stroke-width="1.51"/><path d="M1849,750L1865,507L1718,611Z" fill="rgb(156,137,107)" stroke="rgb(156,137,107)" stroke-width="1.51"/><path d="M1661,102L1659,-93L1528,62Z" fill="rgb(180,109,96)" stroke="rgb(180,109,96)" stroke-width="1.51"/><path d="M1865,507L1855,388L1649,447Z" fill="rgb(193,135,92)" stroke="rgb(193,135,92)" stroke-width="1.51"/><path d="M1814,796L1849,750L1718,611Z" fill="rgb(134,138,117)" stroke="rgb(134,138,117)" stroke-width="1.51"/><path d="M1855,388L1827,263L1695,270Z" fill="rgb(191,149,104)" stroke="rgb(191,149,104)" stroke-width="1.51"/><path d="M74,709L270,726L192,540Z" fill="rgb(201,157,85)" stroke="rgb(201,157,85)" stroke-width="1.51"/><path d="M55,686L74,709L192,540Z" fill="rgb(201,144,83)" stroke="rgb(201,144,83)" stroke-width="1.51"/><path d="M133,1080L297,1168L263,1027Z" fill="rgb(176,92,109)" stroke="rgb(176,92,109)" stroke-width="1.51"/><path d="M263,1027L297,1168L363,1062Z" fill="rgb(179,106,111)" stroke="rgb(179,106,111)" stroke-width="1.51"/><path d="M498,1131L297,1168L666,1141Z" fill="rgb(186,136,114)" stroke="rgb(186,136,114)" stroke-width="1.51"/><path d="M91,450L55,686L192,540Z" fill="rgb(221,141,73)" stroke="rgb(221,141,73)" stroke-width="1.51"/><path d="M8,817L53,928L112,838Z" fill="rgb(175,87,100)" stroke="rgb(175,87,100)" stroke-width="1.51"/><path d="M176,-1L145,131L215,87Z" fill="rgb(227,110,81)" stroke="rgb(227,110,81)" stroke-width="1.51"/><path d="M215,87L145,131L165,224Z" fill="rgb(234,139,82)" stroke="rgb(234,139,82)" stroke-width="1.51"/><path d="M-71,361L-65,501L91,450Z" fill="rgb(234,116,65)" stroke="rgb(234,116,65)" stroke-width="1.51"/><path d="M1814,796L1862,854L1849,750Z" fill="rgb(128,107,122)" stroke="rgb(128,107,122)" stroke-width="1.51"/><path d="M1849,750L1960,762L1865,507Z" fill="rgb(141,127,115)" stroke="rgb(141,127,115)" stroke-width="1.51"/><path d="M1814,1036L1862,854L1707,916Z" fill="rgb(118,74,127)" stroke="rgb(118,74,127)" stroke-width="1.51"/><path d="M419,-56L221,-15L376,35Z" fill="rgb(228,113,81)" stroke="rgb(228,113,81)" stroke-width="1.51"/><path d="M223,-189L221,-15L419,-56Z" fill="rgb(225,102,80)" stroke="rgb(225,102,80)" stroke-width="1.51"/><path d="M411,-225L419,-56L613,-187Z" fill="rgb(234,140,82)" stroke="rgb(234,140,82)" stroke-width="1.51"/><path d="M1779,46L1659,-93L1661,102Z" fill="rgb(176,93,98)" stroke="rgb(176,93,98)" stroke-width="1.51"/><path d="M1827,263L1779,46L1661,102Z" fill="rgb(184,127,105)" stroke="rgb(184,127,105)" stroke-width="1.51"/><path d="M1884,164L1779,46L1827,263Z" fill="rgb(183,123,109)" stroke="rgb(183,123,109)" stroke-width="1.51"/><path d="M1553,1120L1676,1199L1552,1055Z" fill="rgb(126,102,123)" stroke="rgb(126,102,123)" stroke-width="1.51"/><path d="M1005,1163L1676,1199L1369,1128Z" fill="rgb(143,122,115)" stroke="rgb(143,122,115)" stroke-width="1.51"/><path d="M-155,1196L1676,1199L1005,1163Z" fill="rgb(188,118,100)" stroke="rgb(188,118,100)" stroke-width="1.51"/><path d="M719,-255L411,-225L613,-187Z" fill="rgb(235,134,78)" stroke="rgb(235,134,78)" stroke-width="1.51"/><path d="M1659,-93L1628,-155L1524,-132Z" fill="rgb(178,103,95)" stroke="rgb(178,103,95)" stroke-width="1.51"/><path d="M1524,-132L1628,-155L1337,-150Z" fill="rgb(182,120,91)" stroke="rgb(182,120,91)" stroke-width="1.51"/><path d="M1837,-161L1628,-155L1659,-93Z" fill="rgb(174,85,98)" stroke="rgb(174,85,98)" stroke-width="1.51"/><path d="M53,928L96,964L112,838Z" fill="rgb(172,75,104)" stroke="rgb(172,75,104)" stroke-width="1.51"/><path d="M112,838L96,964L237,907Z" fill="rgb(175,90,104)" stroke="rgb(175,90,104)" stroke-width="1.51"/><path d="M1676,1199L1814,1036L1628,958Z" fill="rgb(122,85,126)" stroke="rgb(122,85,126)" stroke-width="1.51"/><path d="M199,-181L176,-1L221,-15Z" fill="rgb(220,83,79)" stroke="rgb(220,83,79)" stroke-width="1.51"/><path d="M221,-15L176,-1L215,87Z" fill="rgb(223,95,80)" stroke="rgb(223,95,80)" stroke-width="1.51"/><path d="M96,964L133,1080L263,1027Z" fill="rgb(173,79,107)" stroke="rgb(173,79,107)" stroke-width="1.51"/><path d="M1779,46L1841,-121L1659,-93Z" fill="rgb(172,76,99)" stroke="rgb(172,76,99)" stroke-width="1.51"/><path d="M1898,198L1884,164L1827,263Z" fill="rgb(186,135,112)" stroke="rgb(186,135,112)" stroke-width="1.51"/><path d="M1898,198L1827,263L1983,367Z" fill="rgb(187,135,111)" stroke="rgb(187,135,111)" stroke-width="1.51"/><path d="M1827,263L1855,388L1983,367Z" fill="rgb(189,131,105)" stroke="rgb(189,131,105)" stroke-width="1.51"/><path d="M1983,367L1855,388L1865,507Z" fill="rgb(189,120,99)" stroke="rgb(189,120,99)" stroke-width="1.51"/><path d="M8,817L112,838L74,709Z" fill="rgb(181,114,96)" stroke="rgb(181,114,96)" stroke-width="1.51"/><path d="M96,964L14,1072L133,1080Z" fill="rgb(168,61,105)" stroke="rgb(168,61,105)" stroke-width="1.51"/><path d="M55,686L8,817L74,709Z" fill="rgb(184,126,92)" stroke="rgb(184,126,92)" stroke-width="1.51"/><path d="M-165,803L8,817L55,686Z" fill="rgb(180,108,94)" stroke="rgb(180,108,94)" stroke-width="1.51"/><path d="M-65,501L55,686L91,450Z" fill="rgb(219,124,71)" stroke="rgb(219,124,71)" stroke-width="1.51"/><path d="M1862,854L1960,762L1849,750Z" fill="rgb(127,104,123)" stroke="rgb(127,104,123)" stroke-width="1.51"/><path d="M1918,929L1960,762L1862,854Z" fill="rgb(121,82,126)" stroke="rgb(121,82,126)" stroke-width="1.51"/><path d="M1814,1036L1918,929L1862,854Z" fill="rgb(114,61,128)" stroke="rgb(114,61,128)" stroke-width="1.51"/><path d="M2037,1147L1918,929L1814,1036Z" fill="rgb(111,51,129)" stroke="rgb(111,51,129)" stroke-width="1.51"/><path d="M2064,-23L1867,-60L1884,164Z" fill="rgb(167,56,104)" stroke="rgb(167,56,104)" stroke-width="1.51"/><path d="M2038,517L1983,367L1865,507Z" fill="rgb(188,112,96)" stroke="rgb(188,112,96)" stroke-width="1.51"/><path d="M-71,361L91,450L165,224Z" fill="rgb(237,139,73)" stroke="rgb(237,139,73)" stroke-width="1.51"/><path d="M1,178L165,224L145,131Z" fill="rgb(234,137,82)" stroke="rgb(234,137,82)" stroke-width="1.51"/><path d="M47,39L1,178L145,131Z" fill="rgb(226,105,80)" stroke="rgb(226,105,80)" stroke-width="1.51"/><path d="M176,-1L47,39L145,131Z" fill="rgb(223,92,80)" stroke="rgb(223,92,80)" stroke-width="1.51"/><path d="M411,-225L223,-189L419,-56Z" fill="rgb(228,115,81)" stroke="rgb(228,115,81)" stroke-width="1.51"/><path d="M199,-181L47,39L176,-1Z" fill="rgb(217,69,78)" stroke="rgb(217,69,78)" stroke-width="1.51"/><path d="M1,178L-71,361L165,224Z" fill="rgb(236,143,80)" stroke="rgb(236,143,80)" stroke-width="1.51"/><path d="M-109,393L-71,361L-101,314Z" fill="rgb(234,126,72)" stroke="rgb(234,126,72)" stroke-width="1.51"/><path d="M1676,1199L1817,1199L1814,1036Z" fill="rgb(119,75,127)" stroke="rgb(119,75,127)" stroke-width="1.51"/><path d="M2049,692L1865,507L1960,762Z" fill="rgb(145,122,114)" stroke="rgb(145,122,114)" stroke-width="1.51"/><path d="M2049,692L2038,517L1865,507Z" fill="rgb(166,118,106)" stroke="rgb(166,118,106)" stroke-width="1.51"/><path d="M223,-189L199,-181L221,-15Z" fill="rgb(221,86,80)" stroke="rgb(221,86,80)" stroke-width="1.51"/><path d="M2032,232L1884,164L1898,198Z" fill="rgb(183,123,113)" stroke="rgb(183,123,113)" stroke-width="1.51"/><path d="M1884,164L1867,-60L1779,46Z" fill="rgb(173,81,104)" stroke="rgb(173,81,104)" stroke-width="1.51"/><path d="M2032,232L1898,198L1983,367Z" fill="rgb(187,133,112)" stroke="rgb(187,133,112)" stroke-width="1.51"/><path d="M2152,803L1960,762L2144,935Z" fill="rgb(122,86,125)" stroke="rgb(122,86,125)" stroke-width="1.51"/><path d="M2152,803L2049,692L1960,762Z" fill="rgb(128,110,122)" stroke="rgb(128,110,122)" stroke-width="1.51"/><path d="M-228,940L14,1072L53,928Z" fill="rgb(164,41,103)" stroke="rgb(164,41,103)" stroke-width="1.51"/><path d="M53,928L14,1072L96,964Z" fill="rgb(167,55,104)" stroke="rgb(167,55,104)" stroke-width="1.51"/><path d="M133,1080L-155,1196L297,1168Z" fill="rgb(169,64,105)" stroke="rgb(169,64,105)" stroke-width="1.51"/><path d="M-165,803L53,928L8,817Z" fill="rgb(173,81,98)" stroke="rgb(173,81,98)" stroke-width="1.51"/><path d="M-205,740L-165,803L55,686Z" fill="rgb(181,117,92)" stroke="rgb(181,117,92)" stroke-width="1.51"/><path d="M-71,361L-109,393L-65,501Z" fill="rgb(234,119,67)" stroke="rgb(234,119,67)" stroke-width="1.51"/><path d="M-101,314L-71,361L1,178Z" fill="rgb(234,134,78)" stroke="rgb(234,134,78)" stroke-width="1.51"/><path d="M1867,-60L1841,-121L1779,46Z" fill="rgb(169,62,101)" stroke="rgb(169,62,101)" stroke-width="1.51"/><path d="M-131,152L-101,314L1,178Z" fill="rgb(233,132,82)" stroke="rgb(233,132,82)" stroke-width="1.51"/><path d="M1817,1199L1875,1188L1814,1036Z" fill="rgb(116,65,128)" stroke="rgb(116,65,128)" stroke-width="1.51"/><path d="M1890,-264L1837,-161L2047,-177Z" fill="rgb(164,41,103)" stroke="rgb(164,41,103)" stroke-width="1.51"/><path d="M2115,338L2032,232L1983,367Z" fill="rgb(187,128,108)" stroke="rgb(187,128,108)" stroke-width="1.51"/><path d="M2115,338L1983,367L2038,517Z" fill="rgb(188,118,100)" stroke="rgb(188,118,100)" stroke-width="1.51"/><path d="M1837,-161L1841,-121L2047,-177Z" fill="rgb(164,44,103)" stroke="rgb(164,44,103)" stroke-width="1.51"/><path d="M1841,-121L1837,-161L1659,-93Z" fill="rgb(171,72,100)" stroke="rgb(171,72,100)" stroke-width="1.51"/><path d="M1628,-155L1890,-264L1337,-150Z" fill="rgb(178,100,95)" stroke="rgb(178,100,95)" stroke-width="1.51"/><path d="M-101,314L-157,493L-109,393Z" fill="rgb(234,121,68)" stroke="rgb(234,121,68)" stroke-width="1.51"/><path d="M-109,393L-157,493L-65,501Z" fill="rgb(234,114,63)" stroke="rgb(234,114,63)" stroke-width="1.51"/><path d="M2047,-177L1841,-121L1867,-60Z" fill="rgb(164,42,103)" stroke="rgb(164,42,103)" stroke-width="1.51"/><path d="M2152,803L2115,338L2038,517Z" fill="rgb(170,116,104)" stroke="rgb(170,116,104)" stroke-width="1.51"/><path d="M-205,740L55,686L-65,501Z" fill="rgb(198,125,82)" stroke="rgb(198,125,82)" stroke-width="1.51"/><path d="M-76,-82L-131,152L47,39Z" fill="rgb(213,50,77)" stroke="rgb(213,50,77)" stroke-width="1.51"/><path d="M47,39L-131,152L1,178Z" fill="rgb(223,95,80)" stroke="rgb(223,95,80)" stroke-width="1.51"/><path d="M-101,314L-131,152L-157,493Z" fill="rgb(234,130,75)" stroke="rgb(234,130,75)" stroke-width="1.51"/><path d="M-229,-211L-205,740L-157,493Z" fill="rgb(234,128,73)" stroke="rgb(234,128,73)" stroke-width="1.51"/><path d="M-157,493L-205,740L-65,501Z" fill="rgb(212,121,75)" stroke="rgb(212,121,75)" stroke-width="1.51"/><path d="M2144,935L1960,762L1918,929Z" fill="rgb(118,73,127)" stroke="rgb(118,73,127)" stroke-width="1.51"/><path d="M2049,692L2152,803L2038,517Z" fill="rgb(141,123,116)" stroke="rgb(141,123,116)" stroke-width="1.51"/><path d="M1875,1188L2037,1147L1814,1036Z" fill="rgb(112,53,129)" stroke="rgb(112,53,129)" stroke-width="1.51"/><path d="M199,-181L-76,-82L47,39Z" fill="rgb(212,44,77)" stroke="rgb(212,44,77)" stroke-width="1.51"/><path d="M2064,-23L1884,164L2032,232Z" fill="rgb(177,96,110)" stroke="rgb(177,96,110)" stroke-width="1.51"/><path d="M1837,-161L1890,-264L1628,-155Z" fill="rgb(170,70,100)" stroke="rgb(170,70,100)" stroke-width="1.51"/><path d="M1021,-249L1890,-264L719,-255Z" fill="rgb(208,122,76)" stroke="rgb(208,122,76)" stroke-width="1.51"/><path d="M2037,1147L2144,935L1918,929Z" fill="rgb(111,51,129)" stroke="rgb(111,51,129)" stroke-width="1.51"/><path d="M2130,39L2064,-23L2032,232Z" fill="rgb(173,80,107)" stroke="rgb(173,80,107)" stroke-width="1.51"/><path d="M-75,-175L-93,-116L-76,-82Z" fill="rgb(208,16,76)" stroke="rgb(208,16,76)" stroke-width="1.51"/><path d="M-76,-82L-229,-211L-131,152Z" fill="rgb(208,16,76)" stroke="rgb(208,16,76)" stroke-width="1.51"/><path d="M-75,-175L-76,-82L199,-181Z" fill="rgb(209,26,77)" stroke="rgb(209,26,77)" stroke-width="1.51"/><path d="M-205,740L-228,940L-165,803Z" fill="rgb(175,88,97)" stroke="rgb(175,88,97)" stroke-width="1.51"/><path d="M-165,803L-228,940L53,928Z" fill="rgb(169,64,101)" stroke="rgb(169,64,101)" stroke-width="1.51"/><path d="M2115,338L2130,39L2032,232Z" fill="rgb(184,125,113)" stroke="rgb(184,125,113)" stroke-width="1.51"/><path d="M2064,-23L2047,-177L1867,-60Z" fill="rgb(164,41,103)" stroke="rgb(164,41,103)" stroke-width="1.51"/><path d="M2152,803L2130,39L2115,338Z" fill="rgb(188,120,101)" stroke="rgb(188,120,101)" stroke-width="1.51"/><path d="M223,-189L-75,-175L199,-181Z" fill="rgb(215,62,78)" stroke="rgb(215,62,78)" stroke-width="1.51"/><path d="M-229,-211L-75,-175L223,-189Z" fill="rgb(208,16,76)" stroke="rgb(208,16,76)" stroke-width="1.51"/><path d="M14,1072L-155,1196L133,1080Z" fill="rgb(164,41,103)" stroke="rgb(164,41,103)" stroke-width="1.51"/><path d="M297,1168L-155,1196L1005,1163Z" fill="rgb(183,119,112)" stroke="rgb(183,119,112)" stroke-width="1.51"/><path d="M-228,940L-155,1196L14,1072Z" fill="rgb(164,41,103)" stroke="rgb(164,41,103)" stroke-width="1.51"/><path d="M2130,39L2047,-177L2064,-23Z" fill="rgb(164,41,103)" stroke="rgb(164,41,103)" stroke-width="1.51"/><path d="M411,-225L-229,-211L223,-189Z" fill="rgb(216,67,78)" stroke="rgb(216,67,78)" stroke-width="1.51"/><path d="M-75,-175L-229,-211L-93,-116Z" fill="rgb(208,16,76)" stroke="rgb(208,16,76)" stroke-width="1.51"/><path d="M-93,-116L-229,-211L-76,-82Z" fill="rgb(208,16,76)" stroke="rgb(208,16,76)" stroke-width="1.51"/><path d="M-131,152L-229,-211L-157,493Z" fill="rgb(225,104,80)" stroke="rgb(225,104,80)" stroke-width="1.51"/><path d="M-205,740L-229,-211L-228,940Z" fill="rgb(230,114,65)" stroke="rgb(230,114,65)" stroke-width="1.51"/><path d="M719,-255L-229,-211L411,-225Z" fill="rgb(226,105,80)" stroke="rgb(226,105,80)" stroke-width="1.51"/></svg>