<svg width="200" height="60" xmlns="http://www.w3.org/2000/svg" xmlns:xlink="http://www.w3.org/1999/xlink">
 <g class="layer">
  <title>Layer 1</title>
  <g id="svg_6"/>
  <path stroke="null" id="svg_1" fill-rule="nonzero" fill="#000000" d="m173.19676,36.02365c-0.02852,0.00612 -0.05707,0.00408 -0.08561,0.00817l0.14679,-0.0204c-0.0204,0.00205 -0.04078,0.01223 -0.06117,0.01631l0,-0.00408zm-98.71268,6.93122a3.36406,3.36406 0 0 1 -1.0356,2.47077a3.39027,3.39027 0 0 1 -2.48097,1.02949l-6.96586,0a10.13128,10.13128 0 0 1 -7.42252,-3.07011c-2.05491,-2.0488 -3.05788,-4.51345 -3.05788,-7.40009l0,-14.03164c0,-0.98871 0.34045,-1.81842 1.0254,-2.49318s1.52078,-1.00911 2.50746,-1.00911c0.92817,-0.01367 1.82026,0.3594 2.46263,1.02949c0.68496,0.68496 1.02949,1.50855 1.02949,2.47077l0,5.08222l9.89126,0c0.89696,0 1.66755,0.31802 2.30972,0.95405s0.9622,1.39848 0.9622,2.29138a3.1188,3.1188 0 0 1 -0.95813,2.29138c-0.60465,0.62035 -1.4374,0.96528 -2.30361,0.95407l-9.90144,0l0,2.45854c0,0.96425 0.33636,1.78376 1.01317,2.45854s1.49635,1.01114 2.46263,1.01114l6.93122,0c0.96425,0 1.79396,0.34656 2.48095,1.03152a3.36406,3.36406 0 0 1 1.03562,2.47077l0.01426,0zm81.37243,0c0.01223,0.93123 -0.36185,1.82576 -1.03357,2.47077a3.38765,3.38765 0 0 1 -2.47892,1.02949l-3.15575,0c-2.79226,0.04364 -5.47851,-1.0674 -7.42455,-3.07011c-2.00577,-1.93461 -3.12028,-4.61374 -3.07828,-7.40009l0,-14.03164c0,-0.98871 0.34045,-1.81842 1.02542,-2.49318s1.51875,-1.00911 2.50746,-1.00911c0.92817,-0.01367 1.82026,0.3594 2.46263,1.02949a3.36384,3.36384 0 0 1 1.02743,2.47077l0,5.08222l6.10151,0c0.86763,-0.01225 1.70204,0.33269 2.30769,0.95405c0.64215,0.63603 0.96222,1.39848 0.96222,2.29138c0.01162,0.86354 -0.33536,1.69326 -0.95813,2.29138c-0.60465,0.62035 -1.43742,0.96528 -2.30361,0.95407l-6.10967,0l0,2.45854c0,0.96425 0.33638,1.78376 1.01319,2.45854s1.49632,1.01114 2.4626,1.01114l3.15983,0c0.96425,0 1.79394,0.34656 2.48095,1.03152a3.36319,3.36319 0 0 1 1.03357,2.47077l-0.00203,0zm-18.34732,0c0,0.95813 -0.34656,1.78376 -1.03357,2.47077c-0.6499,0.6703 -1.5475,1.04274 -2.48097,1.02949l-3.15573,0c-2.8948,0 -5.36763,-1.02337 -7.42049,-3.07011c-2.00719,-1.93381 -3.12332,-4.61313 -3.08234,-7.40009l0,-14.03164c-0.02079,-0.93774 0.35084,-1.84144 1.0254,-2.49318c0.68498,-0.67275 1.52081,-1.00911 2.50746,-1.00911c0.92819,-0.01367 1.82026,0.3594 2.46263,1.02949c0.68498,0.68496 1.02949,1.50855 1.02949,2.47077l0,5.08222l6.09947,0c0.89698,0 1.66757,0.31802 2.30972,0.95405c0.62564,0.5965 0.97364,1.42702 0.96019,2.29138c0.01162,0.86354 -0.33536,1.69326 -0.95816,2.29138c-0.63806,0.61157 -1.427,0.95407 -2.29952,0.95407l-6.13208,0l0,2.45854c0,0.96425 0.33636,1.78376 1.01317,2.45854s1.49632,1.01114 2.46263,1.01114l3.15981,0c0.96425,0 1.79396,0.34656 2.48097,1.03152c0.67172,0.64501 1.0458,1.53955 1.03357,2.47077l0.01835,0zm-29.1478,-6.29516c0,2.70112 -0.95813,5.00678 -2.88257,6.92305c-1.81821,1.87449 -4.33037,2.91417 -6.9414,2.87237c-2.47486,0 -4.6541,-0.81543 -6.53777,-2.50746a9.39876,9.39876 0 0 1 -6.49699,2.50543a9.47935,9.47935 0 0 1 -6.94345,-2.87237c-1.87693,-1.80947 -2.92007,-4.3161 -2.88052,-6.92307l0,-6.83947c-0.02101,-0.87883 0.32983,-1.72567 0.96628,-2.33215c0.64217,-0.61157 1.41682,-0.9459 2.31789,-0.9459a3.18017,3.18017 0 0 1 2.31787,0.9459c0.6442,0.61157 0.9663,1.42702 0.9663,2.33418l0,6.84355c-0.01551,0.86335 0.3278,1.69448 0.94794,2.29546a3.18039,3.18039 0 0 0 2.30361,0.94387c0.8766,0 1.63088,-0.3119 2.24245,-0.94387a3.11901,3.11901 0 0 0 0.9459,-2.29546l0,-6.80889c0,-0.89698 0.32619,-1.67572 0.96833,-2.33215c0.61688,-0.64318 1.4737,-0.99991 2.36476,-0.98463a3.17973,3.17973 0 0 1 2.32401,0.96425c0.64623,0.6442 0.96833,1.41477 0.96833,2.31584l0,6.84355c-0.03344,0.86049 0.29028,1.69632 0.89432,2.30972s1.43517,0.94999 2.29607,0.92961c0.9031,0 1.67166,-0.31192 2.30361,-0.94387c0.62013,-0.60098 0.96325,-1.43211 0.94796,-2.29546l0,-6.84355c0,-0.90107 0.32208,-1.67164 0.96628,-2.31584a3.16182,3.16182 0 0 1 2.31789,-0.96425c0.9031,0 1.67572,0.3221 2.3199,0.96425s0.96427,1.41274 0.96427,2.31381l0,6.83947l0.03872,0.00408zm9.48964,-15.4933c0.01286,0.93184 -0.36144,1.82738 -1.03355,2.4728a3.38765,3.38765 0 0 1 -2.47894,1.02949c-0.93326,0.01142 -1.83004,-0.36082 -2.48095,-1.02949c-0.6705,-0.64562 -1.04397,-1.53996 -1.03154,-2.47077c0,-0.96222 0.34656,-1.78579 1.03154,-2.47077a3.38831,3.38831 0 0 1 2.48095,-1.02949c0.93287,-0.01326 1.82985,0.35921 2.47894,1.02949c0.68904,0.68498 1.03355,1.50855 1.03355,2.47077l0,-0.00203zm0,21.76603a3.38416,3.38416 0 0 1 -1.03355,2.47486c-0.64909,0.67028 -1.54608,1.04274 -2.47894,1.02949c-0.96425,0 -1.78988,-0.34248 -2.48095,-1.02949a3.37302,3.37302 0 0 1 -1.03154,-2.47486l0,-12.90428c0,-0.96222 0.34656,-1.78785 1.03154,-2.4728a3.38765,3.38765 0 0 1 2.48095,-1.03154c0.93306,-0.01262 1.83026,0.36063 2.47894,1.03154c0.68904,0.68496 1.03355,1.50855 1.03355,2.4728l0,12.90428zm79.7803,-12.67391c0,0.89087 -0.32005,1.65532 -0.96222,2.29138c-0.60281,0.62197 -1.43556,0.96711 -2.30155,0.95405l-4.79478,0c-0.89698,0 -1.65737,0.31395 -2.28323,0.93776c-0.61646,0.59526 -0.95772,1.42028 -0.94182,2.27711l0,6.46233c0,0.8929 -0.31802,1.6594 -0.95813,2.29749c-0.60118,0.62238 -1.43233,0.96895 -2.29749,0.95813c-0.89087,0 -1.66146,-0.31802 -2.29954,-0.95813c-0.62299,-0.59895 -0.96995,-1.42925 -0.95813,-2.29341l0,-6.46235c-0.03914,-2.58371 0.99402,-5.06813 2.85403,-6.8619a9.39789,9.39789 0 0 1 6.88636,-2.84994l4.79069,0a3.13954,3.13954 0 0 1 2.30361,0.95813c0.62647,0.59486 0.97406,1.42558 0.95813,2.28935l0.00408,0zm-30.77662,16.17622c-2.76433,0 -5.36964,-1.05192 -7.42455,-3.15167s-2.84383,-4.38909 -2.84383,-7.35116c0,0 -0.1998,-9.41422 10.44982,-9.41422c8.33171,0 10.86569,5.85076 10.86569,8.7415c0,2.29544 -1.04986,3.11089 -3.44114,3.11089l-10.64962,0s-0.40771,2.43611 4.48491,2.43611l6.07501,0c1.55361,0 2.81325,1.25944 2.81325,2.81325s-1.25964,2.81325 -2.81325,2.81325l-7.50202,0l-0.01428,0.00205zm-2.97227,-12.50677l6.99237,0c0,-2.29749 -3.47783,-2.29749 -3.47783,-2.29749s-3.51454,0 -3.51454,2.29749zm-152.64569,-7.6174c-2.17519,0.37102 -0.95877,2.38612 -2.63043,1.68893c3.47171,-0.28541 -0.29308,-0.77127 0.61207,-2.91383c-1.25171,0.77059 8.40374,1.41248 6.26321,0.59093l-1.6529,0.32835c-1.63088,-6.00569 4.34447,-3.4196 -1.51648,-2.83452l-0.96521,2.52354c0.64215,-0.23037 2.02741,0.89917 1.4301,-0.43408c-0.50353,-1.17831 0.27434,0.03477 0.98729,-3.64899c0.71296,-3.68376 0.03283,2.25936 1.94521,0.56038c1.91238,-1.69898 1.76079,0.40771 0.41429,1.63208c0.48518,-0.51984 -10.72527,-0.49658 -6.06134,2.75175c4.66393,3.24833 2.81797,-2.07498 1.68996,-5.15021c-1.12801,-3.07522 -0.0183,7.67445 -1.40455,6.93035c-3.88963,-2.08547 9.78378,3.37937 2.49989,0.66397c-0.20386,2.41982 -7.3231,-5.28343 -3.21738,-3.14496c-0.88475,-0.12231 0.11744,-0.29002 -1.17503,0.0178c0.52596,2.7725 -0.37227,4.18209 4.29407,5.28293c-2.13236,0.1427 -3.23523,-4.1933 -4.23211,-3.13321c0.97037,1.93053 -2.55359,0.92345 1.70706,0.45456c-4.74177,2.04674 -2.41718,-3.9375 -0.6964,-5.43199c1.72078,-1.49449 -3.29719,-4.22383 -1.5062,-1.57246c1.79099,2.65137 5.40674,5.62108 6.12865,7.39889c0.72191,1.7778 -0.55863,4.1513 0.81742,2.67535l-3.7312,-5.23556z"/>
  <use stroke="null" y="-500.60975" xlink:href="#svg_4" x="-513.73552" transform="matrix(0.724042 0 0 0.696658 326.507 357.25)" id="svg_5"/>
 </g>
 <defs>
  <symbol viewBox="0 0 257 210" id="svg_4" xmlns:xlink="http://www.w3.org/1999/xlink">
   <use id="svg_2" y="0.5" xlink:href="#svg_3" x="0.5"/>
   <symbol id="svg_3">
    <path id="svg_8" fill-rule="nonzero" fill="#1da1f2" d="m80.507,208.013c96.604,0 149.442,-80.036 149.442,-149.442c0,-2.274 0,-4.537 -0.153,-6.8c10.278,-7.432 19.151,-16.634 26.204,-27.176a104.84,104.84 0 0 1 -30.167,8.264c10.964,-6.564 19.17,-16.888 23.091,-29.05a105.26,105.26 0 0 1 -33.352,12.748c-16.281,-17.311 -42.15,-21.548 -63.103,-10.334s-31.777,35.088 -26.404,58.238c-42.231,-2.118 -81.577,-22.065 -108.247,-54.878c-13.941,23.999 -6.821,54.7 16.26,70.113a52.13,52.13 0 0 1 -23.838,-6.574l0,0.665c0.007,25.002 17.631,46.537 42.138,51.487a52.44,52.44 0 0 1 -23.716,0.901c6.881,21.396 26.599,36.053 49.07,36.475a105.39,105.39 0 0 1 -65.229,22.528c-4.179,-0.008 -8.354,-0.261 -12.503,-0.758c24.019,15.414 51.967,23.59 80.507,23.552"/>
   </symbol>
  </symbol>
 </defs>
</svg>