<svg width="200" height="60" xmlns="http://www.w3.org/2000/svg">

 <g>
  <title>Layer 1</title>
  <path stroke="null" id="svg_1" fill="#FF007A" d="m1.98845,5.31836c4.88433,5.98789 10.24721,13.51051 11.11462,14.72724c0.04626,0.06487 0.07972,0.11182 0.09966,0.13965c0.46239,0.64556 0.84411,1.12544 1.134,1.48988l0.00004,0.00004l0,0c0.64354,0.809 0.83448,1.04906 0.45049,1.26957c-0.30974,0.17782 -0.62927,0.23646 -0.94809,0.23646c-0.36063,0 -0.76692,-0.17541 -1.06275,-0.45886c-0.2091,-0.2003 -1.63991,-2.2993 -3.58825,-5.35283c-1.49073,-2.33648 -2.73831,-4.27469 -2.77234,-4.30713c-0.07868,-0.07506 -0.07734,-0.07251 2.62035,4.80299c1.69391,3.06149 2.85262,5.32387 2.85262,5.46861c0,0.29441 -0.07954,0.44917 -0.43911,0.85428c-0.59941,0.67554 -0.86737,1.43448 -1.06079,3.00509c-0.21684,1.76066 -0.8266,3.00456 -2.51641,5.13308c-0.98916,1.24615 -1.15101,1.47448 -1.4006,1.97677c-0.31437,0.63244 -0.40083,0.98665 -0.43587,1.7853c-0.03703,0.84448 0.0351,1.38995 0.2905,2.19716c0.22361,0.70679 0.45699,1.17364 1.05364,2.10713c0.51492,0.80537 0.8114,1.404 0.8114,1.63824c0,0.18637 0.03522,0.18658 0.83311,0.00468c1.90947,-0.43568 3.45994,-1.20154 4.33196,-2.14033c0.53969,-0.58111 0.6664,-0.90192 0.67049,-1.69813c0.00271,-0.52082 -0.01544,-0.6298 -0.1548,-0.92942c-0.22689,-0.48783 -0.63992,-0.89316 -1.55025,-1.52173c-1.1928,-0.8237 -1.70226,-1.4867 -1.84299,-2.3986c-0.11543,-0.74814 0.01849,-1.27609 0.67835,-2.67296c0.68298,-1.44596 0.85224,-2.06211 0.96673,-3.51969c0.07394,-0.94164 0.17635,-1.31296 0.4442,-1.61095c0.27935,-0.31082 0.53082,-0.41613 1.22213,-0.51166c1.12707,-0.15541 1.84474,-0.44996 2.43465,-0.99904c0.51174,-0.47632 0.72589,-0.9353 0.75875,-1.62622l0.02495,-0.5237l-0.28597,-0.33677c-1.03564,-1.21969 -15.42799,-17.18692 -15.49173,-17.18692c-0.01362,0 0.32718,0.43148 0.75729,0.95878zm6.78447,31.72561c0.23416,-0.41898 0.10975,-0.95732 -0.28194,-1.22048c-0.37008,-0.2485 -0.94496,-0.13138 -0.94496,0.19248c0,0.09879 0.0541,0.17069 0.17607,0.23424c0.20534,0.10673 0.22025,0.2267 0.05868,0.47194c-0.16362,0.2485 -0.15042,0.46685 0.03725,0.61513c0.30247,0.23933 0.73064,0.10775 0.9549,-0.29331zm7.04784,-22.84139c-0.46204,-0.07239 -0.48151,-0.08088 -0.2641,-0.11463c0.41668,-0.06473 1.40054,0.02348 2.07855,0.18633c1.58282,0.38002 3.0231,1.35355 4.56048,3.08256l0.40839,0.45933l0.58437,-0.09488c2.46154,-0.39957 4.96565,-0.08202 7.06015,0.89528c0.57623,0.26889 1.48466,0.80409 1.59812,0.94162c0.03605,0.04383 0.10266,0.326 0.14747,0.62707c0.15562,1.04163 0.07781,1.84005 -0.2377,2.43638c-0.1715,0.32451 -0.18108,0.42735 -0.06579,0.70508c0.09207,0.22161 0.34891,0.38562 0.60332,0.38527c0.52042,-0.00071 1.08055,-0.85057 1.34025,-2.03309l0.10306,-0.46972l0.2043,0.23371c1.12027,1.28218 2.0004,3.03076 2.15153,4.27536l0.03931,0.32447l-0.18821,-0.29494c-0.32427,-0.50758 -0.64976,-0.85324 -1.0669,-1.13194c-0.7516,-0.50241 -1.54658,-0.67338 -3.65147,-0.78543c-1.9012,-0.10119 -2.97707,-0.26522 -4.04397,-0.61664c-1.81545,-0.5978 -2.7304,-1.39398 -4.88682,-4.25157c-0.95771,-1.26925 -1.54968,-1.97149 -2.13853,-2.53703c-1.33805,-1.28499 -2.6528,-1.9589 -4.33579,-2.2226zm16.45471,2.83392c0.04787,-0.85051 0.16213,-1.4115 0.39169,-1.92381c0.09084,-0.20279 0.17598,-0.36877 0.18902,-0.36877c0.01324,0 -0.02628,0.14969 -0.08779,0.3326c-0.16682,0.49722 -0.19432,1.17726 -0.07923,1.96848c0.14584,1.00393 0.22894,1.14879 1.27935,2.23323c0.49272,0.50866 1.06589,1.15019 1.27365,1.42562l0.37784,0.5008l-0.37784,-0.3579c-0.46196,-0.43768 -1.52438,-1.29126 -1.75903,-1.41329c-0.15745,-0.08182 -0.18087,-0.08042 -0.27783,0.01717c-0.08942,0.08993 -0.10836,0.22503 -0.12079,0.86379c-0.01935,0.99555 -0.15358,1.63454 -0.47785,2.27348c-0.17537,0.34557 -0.20307,0.27182 -0.0444,-0.11824c0.11854,-0.29123 0.13056,-0.41927 0.12975,-1.383c-0.00183,-1.9364 -0.22955,-2.40192 -1.5643,-3.19939c-0.33791,-0.20202 -0.8952,-0.49337 -1.238,-0.6475c-0.3426,-0.15411 -0.61493,-0.28834 -0.60515,-0.29836c0.03789,-0.03801 1.33964,0.34576 1.86352,0.5493c0.7793,0.3028 0.90783,0.34205 1.00254,0.30551c0.06335,-0.02448 0.0941,-0.2111 0.12486,-0.75971zm-16.94991,-1.4866c-0.12563,1.49499 0.45471,3.49486 1.39268,4.79922c0.72712,1.01112 1.85425,1.79683 2.68637,1.87273c0.54484,0.04968 0.70858,-0.12262 0.46208,-0.48618c-0.34219,-0.50483 -0.76309,-1.28212 -0.87448,-1.6149c-0.06917,-0.20674 -0.21953,-0.81741 -0.33415,-1.35703c-0.39126,-1.84234 -0.77584,-2.5598 -1.66417,-3.10474c-0.32372,-0.19861 -1.01503,-0.45852 -1.41596,-0.53237l-0.2135,-0.03937l-0.03886,0.46265zm15.81233,14.50685c-4.38352,-1.78266 -5.92745,-3.33005 -5.92745,-5.94096c0,-0.38421 0.01324,-0.69858 0.02913,-0.69858c0.01609,0 0.18556,0.12679 0.37682,0.2818c0.88888,0.72011 1.88429,1.0277 4.63996,1.43364c1.62134,0.23913 2.53385,0.43202 3.37568,0.71412c2.67541,0.89622 4.33076,2.71492 4.7255,5.19235c0.11467,0.71982 0.04746,2.06965 -0.13851,2.78112c-0.14686,0.56197 -0.59497,1.57469 -0.71371,1.6136c-0.033,0.0108 -0.06538,-0.11671 -0.07373,-0.29025c-0.04501,-0.93023 -0.51044,-1.83582 -1.29198,-2.51429c-0.88868,-0.77136 -2.08268,-1.38527 -5.0017,-2.57255zm-3.28911,-0.19615c0.06151,0.18515 0.15684,0.60658 0.21163,0.93675c0.35115,2.11059 -0.74569,3.81584 -2.8793,4.4766c-0.22589,0.06986 -1.11559,0.24585 -1.97718,0.39067c-1.74408,0.29331 -2.5225,0.50107 -3.30449,0.88155c-0.55457,0.26988 -1.226,0.674 -1.1861,0.71412c0.01285,0.01304 0.13944,-0.01752 0.28123,-0.06783c0.98616,-0.34973 2.08364,-0.5308 3.75107,-0.61839c0.66177,-0.03463 1.41439,-0.09003 1.67267,-0.12282c1.48548,-0.18902 2.51511,-0.64487 3.3158,-1.46796c0.44546,-0.45809 0.71107,-0.88481 0.92514,-1.4865c0.13565,-0.38171 0.15399,-0.52347 0.155,-1.19971c0.00122,-0.68907 -0.01528,-0.81515 -0.16234,-1.23902c-0.19248,-0.55565 -0.41959,-0.9726 -0.7072,-1.2987l-0.20776,-0.23546l0.11182,0.33669zm2.22119,4.54137c-0.58254,-1.26468 -0.71616,-2.48557 -0.39719,-3.62418c0.03422,-0.1218 0.08901,-0.22141 0.12221,-0.22141c0.033,0 0.17028,0.07516 0.30532,0.16682c0.26825,0.1825 0.80659,0.48986 2.24054,1.27955c1.78958,0.98543 2.80984,1.74844 3.50359,2.62041c0.60759,0.76341 0.9836,1.63295 1.16447,2.69333c0.10266,0.60067 0.04257,2.04602 -0.10999,2.65076c-0.48111,1.90711 -1.59934,3.40501 -3.1942,4.27923c-0.23363,0.12791 -0.44342,0.23302 -0.46624,0.23363c-0.02261,0.00041 0.06253,-0.21815 0.18922,-0.48599c0.53651,-1.1329 0.59761,-2.23484 0.19208,-3.46123c-0.2485,-0.75099 -0.75486,-1.66737 -1.77736,-3.21619c-1.18871,-1.80058 -1.48018,-2.27985 -1.77247,-2.91474zm-10.97042,4.14785c-1.84362,0.30247 -3.86758,1.2879 -5.49425,2.67521l-0.48428,0.41307l0.4256,0.06722c2.22099,0.35014 2.81905,0.66076 4.35962,2.26376c0.88656,0.92229 1.18598,1.1276 1.92132,1.31723c1.08006,0.27844 2.14469,-0.23322 2.50989,-1.20643c0.16315,-0.43487 0.14136,-1.1549 -0.04583,-1.51644c-0.44526,-0.86098 -1.74247,-1.13921 -2.36976,-0.5086c-0.52249,0.5253 -0.37026,1.31662 0.27958,1.45268c0.14877,0.03137 0.14454,0.02465 -0.03791,-0.05866c-0.28441,-0.12995 -0.40794,-0.31001 -0.40953,-0.59659c-0.00363,-0.67196 0.75765,-1.04918 1.46586,-0.72655c0.51854,0.23648 0.72447,0.54527 0.72447,1.08666c0,0.83368 -0.70245,1.46185 -1.51996,1.35919c-0.43697,-0.055 -0.97136,-0.3373 -1.25792,-0.66442c-0.72103,-0.8235 -0.44014,-2.12301 0.56655,-2.62164c0.76639,-0.37947 1.78512,-0.28597 2.57511,0.23648c0.90762,0.60046 1.29361,1.14919 2.07535,2.95018c0.25461,0.58641 0.58213,1.24656 0.72777,1.46694c0.7406,1.11966 1.62785,1.6688 2.69659,1.6688c0.58947,0 1.03289,-0.10877 1.59078,-0.39006c0.4145,-0.20919 1.00213,-0.60658 0.95977,-0.64915c-0.01202,-0.01202 -0.18393,0.04196 -0.38211,0.11997c-1.16691,0.45972 -2.35318,0.42815 -3.04204,-0.08127c-0.43385,-0.3206 -0.78378,-0.95936 -0.96364,-1.75821c-0.03116,-0.1383 -0.13382,-0.74895 -0.22833,-1.35716c-0.23953,-1.54149 -0.4695,-2.23443 -1.0058,-3.02962c-0.54873,-0.81352 -1.60362,-1.49627 -2.78295,-1.80119c-0.73579,-0.19024 -2.0594,-0.24198 -2.85396,-0.11142zm-2.58208,-11.91825c0.15922,-0.59395 0.67355,-1.1604 1.20266,-1.32457c0.33645,-0.10429 1.03189,-0.03768 1.35889,0.13016c0.63369,0.32549 1.09373,1.0667 0.9939,1.60178c-0.12176,0.6524 -1.16926,1.17445 -2.3742,1.18301c-0.61546,0.00428 -0.84275,-0.07923 -1.07778,-0.39617c-0.14547,-0.19635 -0.20059,-0.83185 -0.10347,-1.19421zm2.39974,-0.9618c0.31602,0.19493 0.39731,0.48314 0.21151,0.74977c-0.128,0.18372 -0.52425,0.35828 -0.81381,0.35828c-0.43503,0 -0.90962,-0.31205 -0.90962,-0.59782c0,-0.57419 0.91009,-0.88155 1.51192,-0.51023zm94.44892,1.64415c-0.98299,-3.26966 0.63815,-5.98175 4.09713,-6.85326c0.99195,-0.25009 5.48382,-0.13724 6.25335,0.15718c0.28272,0.10787 0.40574,0.52198 0.40839,1.373c0.00183,0.67023 0.07496,1.48424 0.16213,1.80885c0.1324,0.49204 0.055,0.58885 -0.4642,0.58097c-0.4697,-0.00733 -0.75364,-0.28257 -1.15021,-1.11524c-0.63326,-1.32994 -1.40013,-1.75298 -3.18707,-1.75795c-2.28128,-0.00656 -3.95048,1.52939 -3.67876,3.38523c0.177,1.20765 1.38364,2.39595 4.09143,4.02951c2.57642,1.55392 4.08023,2.83184 4.67927,3.97676c1.60219,3.06099 0.23403,6.33666 -3.33555,7.98712c-1.83235,0.84713 -4.90332,0.93471 -7.06239,0.20144l-1.38262,-0.4697l0,-2.20917c0,-2.0008 0.04766,-2.20958 0.50371,-2.20958c0.3815,0 0.54628,0.25216 0.68011,1.04205c0.33323,1.96414 1.82584,3.15651 3.9517,3.15651c2.08248,0 3.53822,-1.13779 4.09591,-3.20092c0.2375,-0.8789 0.19656,-1.20297 -0.27457,-2.17251c-0.56462,-1.16243 -1.53681,-1.93379 -4.83875,-3.83866c-1.83215,-1.05713 -3.12779,-2.4705 -3.54902,-3.87165zm-64.72718,-5.54799c-0.45055,0 -0.62633,-0.1472 -0.62633,-0.52484c0,-0.49991 0.17578,-0.52484 3.70626,-0.52484c3.27689,0 3.69628,0.04933 3.62112,0.42538c-0.04705,0.23408 -0.49984,0.55871 -1.00682,0.72168l-0.92188,0.29624l-0.07862,6.69178c-0.05275,4.46519 0.02139,7.041 0.22242,7.74127c0.59782,2.08268 2.42141,3.28035 4.99437,3.28035c1.79121,0 2.83754,-0.41878 4.15213,-1.66248c1.41398,-1.33699 1.63946,-2.60738 1.63498,-9.21005c-0.00428,-6.51278 -0.11773,-7.05029 -1.51644,-7.18543c-0.63652,-0.06166 -0.84978,-0.20994 -0.84978,-0.59044c0,-0.47446 0.21,-0.5083 3.16018,-0.5083c2.9846,0 3.16018,0.02913 3.16018,0.52484c0,0.32331 -0.177,0.5264 -0.46094,0.52877c-1.21967,0.01075 -1.24207,0.12679 -1.40624,7.26825c-0.17028,7.41619 -0.32936,8.29428 -1.83235,10.11095c-0.43344,0.52408 -1.46715,1.28505 -2.29696,1.6912c-1.35227,0.66177 -1.78245,0.73775 -4.14256,0.73347c-2.17556,-0.00448 -2.86239,-0.10958 -3.95028,-0.60474c-1.58793,-0.72288 -2.62062,-1.65841 -3.38199,-3.06424c-0.53142,-0.98136 -0.57684,-1.51236 -0.69986,-8.16127c-0.14095,-7.61065 -0.20919,-7.97755 -1.48059,-7.97755zm24.64309,0c-0.60209,0 -0.77767,-0.11861 -0.77767,-0.52484c0,-0.49202 0.16824,-0.52351 2.69924,-0.50331l2.69944,0.02151l1.29157,1.48739c0.70984,0.81796 3.02453,3.37684 5.14306,5.68602c2.11874,2.30939 4.55115,4.99579 5.4052,5.97002c0.85426,0.97443 1.6582,1.77145 1.78673,1.77145c0.13199,0 0.19778,-2.7522 0.15073,-6.32118l-0.0831,-6.32116l-0.73897,-0.63295c-0.40635,-0.34824 -1.0282,-0.63297 -1.38241,-0.63297c-0.47112,0 -0.64365,-0.14276 -0.64365,-0.53219c0,-0.51251 0.13443,-0.52956 3.62092,-0.45923c2.96464,0.05982 3.62112,0.1425 3.62112,0.45583c0,0.22332 -0.36663,0.45768 -0.88033,0.56238c-0.48396,0.09869 -1.01741,0.31596 -1.18504,0.48286c-0.21631,0.21544 -0.32651,3.00108 -0.38008,9.6064l-0.07557,9.30293l-0.76321,0c-0.65709,0 -1.43924,-0.73938 -5.6209,-5.31395c-2.67174,-2.92289 -5.79037,-6.39654 -6.9302,-7.71927c-1.14003,-1.32294 -2.16151,-2.4153 -2.27007,-2.42732c-0.30573,-0.03422 -0.23179,11.78484 0.08086,12.90674c0.24381,0.87422 0.41144,1.02474 1.44719,1.30094c0.83409,0.22222 1.1714,0.4477 1.1714,0.78256c0,0.42998 -0.31795,0.47031 -3.68691,0.47031c-3.42945,0 -3.68691,-0.03422 -3.68691,-0.4919c0,-0.33506 0.24809,-0.5414 0.77808,-0.64711c1.6081,-0.3204 1.71483,-0.829 1.80506,-8.60368c0.05051,-4.35439 -0.02363,-7.40108 -0.19615,-8.03902c-0.30308,-1.12184 -1.05835,-1.63726 -2.39942,-1.63726zm27.61405,0c-0.56421,0 -0.73979,-0.12464 -0.73979,-0.52484c0,-0.50147 0.17558,-0.52484 3.95028,-0.52484c3.7745,0 3.95028,0.02336 3.95028,0.52484c0,0.38499 -0.17578,0.52484 -0.65852,0.52484c-0.36195,0 -0.90009,0.24094 -1.19563,0.53537c-0.52164,0.51985 -0.53508,0.77834 -0.46074,8.81258c0.07231,7.84291 0.10327,8.29672 0.58743,8.6493c0.28129,0.2047 0.7848,0.37213 1.11925,0.37213c0.43242,0 0.6082,0.15134 0.6082,0.5249c0,0.50147 -0.17578,0.52469 -3.95028,0.52469c-3.68487,0 -3.95028,-0.033 -3.95028,-0.49109c0,-0.36949 0.25848,-0.53264 1.04328,-0.6577c1.5584,-0.24829 1.63804,-0.75669 1.54088,-9.82864c-0.0776,-7.26507 -0.11101,-7.71805 -0.59354,-8.06943c-0.28129,-0.20468 -0.84407,-0.37211 -1.25083,-0.37211zm27.55518,0c-0.36032,0 -0.63428,-0.19969 -0.71962,-0.52484c-0.1328,-0.5075 -0.00774,-0.52484 3.78814,-0.52484c3.74985,0 3.92543,0.02336 3.92543,0.52484c0,0.40334 -0.17558,0.52484 -0.75791,0.52484c-1.6578,0 -1.62052,0.30019 0.88868,7.16301c1.2769,3.49341 2.51715,6.81185 2.75546,7.37423l0.43324,1.0227l2.01139,-5.35265c2.36784,-6.3006 2.67541,-7.46579 2.27333,-8.61492c-0.28027,-0.80091 -1.36999,-1.59237 -2.19227,-1.59237c-0.23241,0 -0.40819,-0.22566 -0.40819,-0.52484c0,-0.50227 0.17578,-0.52484 4.08206,-0.52484c3.90628,0 4.08186,0.02257 4.08186,0.52484c0,0.37344 -0.17558,0.52484 -0.608,0.52484c-1.10723,0 -1.59547,0.58837 -1.43639,1.73147c0.16376,1.17669 4.69312,13.82338 4.88316,13.63416c0.30899,-0.30777 5.32515,-13.92205 5.32515,-14.45267c0,-0.63582 -0.44648,-0.91296 -1.47,-0.91296c-0.46114,0 -0.63692,-0.14458 -0.63692,-0.52484c0,-0.49571 0.17578,-0.52484 3.16038,-0.52484c2.6805,0 3.16018,0.06196 3.16018,0.40729c0,0.22412 -0.32834,0.52141 -0.72981,0.66076c-0.90273,0.31359 -1.12944,0.67153 -2.26193,3.57097c-0.4972,1.27324 -2.05356,5.25814 -3.45878,8.85482c-1.40502,3.59709 -2.61512,6.69698 -2.68885,6.88864c-0.07394,0.19187 -0.50942,0.34871 -0.96812,0.34871l-0.83348,0l-1.89163,-4.92043c-1.04063,-2.70596 -2.26987,-5.91197 -2.73142,-7.12431c-0.79152,-2.07739 -0.85792,-2.16762 -1.15571,-1.57469c-0.17374,0.34647 -1.42356,3.55818 -2.77786,7.13734l-2.46174,6.50775l-0.91883,-0.07842l-0.91883,-0.07842l-3.50441,-9.16422c-1.95782,-5.12004 -3.7582,-9.43406 -4.08002,-9.77519c-0.31693,-0.33616 -0.83776,-0.61093 -1.15775,-0.61093zm52.65759,0.11129c-0.044,-0.09968 -0.04379,-0.45793 -0.04379,-0.45793c0,0 -0.00998,-0.12922 0.0442,-0.19815c0.05398,-0.0687 0.07312,-0.07054 0.26683,-0.08895l0.00183,-0.00018c0.71107,-0.06762 2.13768,-0.18144 3.32822,-0.23338c0.10897,-0.00477 0.23016,-0.01027 0.36195,-0.01623l0.00265,-0.00012l0.00163,-0.00008l0.00102,-0.00004c1.31031,-0.05946 3.65493,-0.13897 5.26649,-0.05844c3.09195,0.1545 5.29114,1.64908 6.0405,4.11889c0.74956,2.46969 0.35319,4.78803 -0.66829,6.26374c-1.02169,1.4757 -2.73937,2.74629 -5.59463,2.6636c-2.35705,-0.06823 -2.98786,-0.50962 -3.49178,-0.8622c-0.10653,-0.07455 -0.20735,-0.14523 -0.31755,-0.20735l0,3.14959c0.02485,2.14807 0.04277,3.17973 0.20919,3.56164c0.22405,0.5141 0.73062,0.83083 1.71768,1.07363c0,0 0.44648,0.10469 0.56176,0.21631c0.11508,0.11162 0.11508,0.3595 0.11508,0.3595c0,0 0.02363,0.23179 -0.06885,0.34993c-0.09268,0.11814 -0.27131,0.09451 -0.27131,0.09451l-4.37109,-0.03524l-2.63549,-0.00693c0,0 -0.2766,0.05296 -0.38028,-0.05825c-0.10368,-0.11142 -0.0941,-0.34341 -0.0941,-0.34341c0,0 0.02281,-0.24992 0.1438,-0.36175c0.12099,-0.11203 0.57093,-0.23709 0.57093,-0.23709c1.01639,-0.28536 1.45717,-0.58723 1.68753,-1.15592c0.18556,-0.4585 0.18678,-1.30868 0.18495,-8.24682c-0.00183,-6.57967 -0.01141,-7.80702 -0.16234,-8.16001c-0.22324,-0.52251 -0.78236,-0.66096 -1.57836,-0.85807l-0.00041,-0.00008c-0.15765,-0.03909 -0.32488,-0.08048 -0.50046,-0.12761c0,0 -0.28333,-0.03744 -0.32753,-0.13712zm12.72749,5.36886c0,1.07892 -0.01894,2.76809 -1.16753,3.84782c-1.14858,1.07974 -3.4101,1.37528 -4.94528,1.07464c-0.48396,-0.09471 -0.76056,-0.24076 -0.97382,-0.35339l-0.02139,-0.0112l-0.39291,-0.20694l-0.02281,-3.79079c-0.01426,-2.37518 0.01059,-3.92266 0.06661,-4.14388c0.05113,-1.2524 1.89835,-1.4082 2.80108,-1.36182c3.86167,0 4.54341,3.25375 4.65605,4.94557zm-24.85391,-6.38285c0,0 -0.18861,0.07239 -0.47459,0.18079l-1.03106,0.53258l-0.74264,1.8537c-0.40819,1.01951 -1.1553,2.89105 -1.65983,4.15899c-0.91903,2.30939 -1.52601,3.82664 -2.16477,5.41029c-0.1878,0.46583 -0.75506,1.88429 -1.26061,3.15224c-0.50534,1.26774 -1.01048,2.47437 -1.12251,2.68132c-0.01874,0.03442 -0.0385,0.07149 -0.05927,0.1106c-0.28251,0.53121 -0.7736,1.45391 -1.64069,1.59343c0,0 -0.47662,0.04685 -0.65322,0.2212c-0.1766,0.17456 -0.15949,0.31714 -0.15949,0.31714l0,0.21978c0,0 0.01609,0.10653 0.1161,0.15949c0.10001,0.05316 0.23546,0.05622 0.23546,0.05622l3.17159,-0.03605l3.27811,0c0,0 0.23179,0.02709 0.32121,-0.04705c0.08942,-0.07414 0.11406,-0.18413 0.11406,-0.18413l0,-0.23139c0,0 -0.04563,-0.25094 -0.17537,-0.34891c-0.12975,-0.09777 -0.61635,-0.16478 -0.61635,-0.16478c-1.31235,-0.17252 -1.53823,-1.16508 -1.3763,-2.05763c0.07964,-0.43853 0.60698,-2.06069 1.20093,-3.69384l0.20552,-0.56441l3.43475,-0.02628c1.88918,-0.01446 3.5203,-0.00468 3.62458,0.02179c0.1491,0.03768 0.35788,0.46155 0.97077,1.97127c0.9286,2.28739 1.00274,2.56603 0.79723,2.99397c-0.01263,0.02607 -0.02587,0.05479 -0.04033,0.08575c-0.19289,0.41389 -0.56747,1.21804 -1.51135,1.29992c0,0 -0.50066,0.01731 -0.62531,0.16702c-0.12445,0.14991 -0.09757,0.32223 -0.09757,0.32223l0,0.22894c0,0 0.0334,0.13423 0.09757,0.18739c0.06436,0.05316 0.17313,0.03972 0.17313,0.03972l3.11781,-0.02241l4.3827,-0.0002c0,0 0.17191,0.01833 0.21876,-0.04766c0.04664,-0.0662 0.05642,-0.14401 0.05642,-0.14401l0,-0.3041c0,0 -0.01915,-0.16173 -0.10347,-0.25094c-0.08412,-0.08901 -0.65261,-0.18311 -0.65261,-0.18311c-0.72594,-0.11712 -1.08748,-0.71636 -1.35675,-1.16264c-0.06864,-0.11386 -0.13138,-0.21774 -0.19248,-0.30105c-0.12486,-0.17008 -0.57052,-1.10214 -0.91964,-1.99856c-0.34891,-0.89642 -1.13636,-2.92146 -1.74966,-4.49982c-0.6135,-1.57836 -1.46959,-3.7802 -1.90242,-4.89273c-0.43283,-1.11273 -1.25531,-3.22984 -1.82787,-4.70475c-0.0939,-0.24208 -0.17822,-0.45951 -0.25359,-0.65416l-0.0002,-0.00088c-0.38395,-0.9905 -0.53875,-1.39019 -0.58132,-1.44429c-0.1379,-0.17566 -0.56543,0 -0.56543,0zm-0.20409,6.02722c-0.1383,-0.33628 -0.38191,-0.9396 -0.54099,-1.34066c-0.28923,-0.72899 -0.39902,-0.89691 -0.48864,-0.7463c-0.02607,0.044 -0.20817,0.54221 -0.40452,1.10723c-1.271,3.65819 -1.84661,5.3054 -1.9621,5.61581c-0.07251,0.19513 -0.13178,0.39617 -0.13178,0.44689c0,0.05825 1.03391,0.09227 2.80516,0.09227c1.54271,0 2.80495,-0.01915 2.80495,-0.04257c0,-0.02342 -0.13749,-0.37254 -0.30573,-0.77625c-0.16824,-0.4037 -0.5801,-1.41134 -0.91516,-2.23932c-0.33506,-0.82798 -0.72268,-1.78062 -0.86118,-2.11711z" clip-rule="evenodd" fill-rule="evenodd"/>
 </g>
</svg>