<svg width="179" height="179" xmlns="http://www.w3.org/2000/svg">
 <g id="Layer_1">
  <title>Layer 1</title>
  <style type="text/css">.st0{fill:#FF007A;}
	.st1{fill-rule:evenodd;clip-rule:evenodd;fill:#FF007A;}</style>
  <g stroke="null" id="svg_31">
   <g stroke="null" transform="matrix(1.09368 0 0 1.09368 -289.506 -286.024)" id="svg_30">
    <title stroke="null">Layer 1</title>
    <path stroke="null" class="st0" d="m317.9004,270.00307c-2.1,-0.3 -2.2,-0.4 -1.2,-0.5c1.9,-0.3 6.3,0.1 9.4,0.8c7.2,1.7 13.7,6.1 20.6,13.8l1.8,2.1l2.6,-0.4c11.1,-1.8 22.5,-0.4 32,4c2.6,1.2 6.7,3.6 7.2,4.2c0.2,0.2 0.5,1.5 0.7,2.8c0.7,4.7 0.4,8.2 -1.1,10.9c-0.8,1.5 -0.8,1.9 -0.3,3.2c0.4,1 1.6,1.7 2.7,1.7c2.4,0 4.9,-3.8 6.1,-9.1l0.5,-2.1l0.9,1c5.1,5.7 9.1,13.6 9.7,19.2l0.2,1.5l-0.9,-1.3c-1.5,-2.3 -2.9,-3.8 -4.8,-5.1c-3.4,-2.3 -7,-3 -16.5,-3.5c-8.6,-0.5 -13.5,-1.2 -18.3,-2.8c-8.2,-2.7 -12.4,-6.2 -22.1,-19.1c-4.3,-5.7 -7,-8.8 -9.7,-11.4c-5.9,-5.7 -11.8,-8.7 -19.5,-9.9z" id="svg_28"/>
    <path stroke="null" class="st0" d="m392.4004,285.05601c0.2,-3.8 0.7,-6.3 1.8,-8.6c0.4,-0.9 0.8,-1.7 0.9,-1.7c0.1,0 -0.1,0.7 -0.4,1.5c-0.8,2.2 -0.9,5.3 -0.4,8.8c0.7,4.5 1,5.1 5.8,10c2.2,2.3 4.8,5.2 5.8,6.4l1.7,2.2l-1.7,-1.6c-2.1,-2 -6.9,-5.8 -8,-6.3c-0.7,-0.4 -0.8,-0.4 -1.3,0.1c-0.4,0.4 -0.5,1 -0.5,3.9c-0.1,4.5 -0.7,7.3 -2.2,10.2c-0.8,1.5 -0.9,1.2 -0.2,-0.5c0.5,-1.3 0.6,-1.9 0.6,-6.2c0,-8.7 -1,-10.8 -7.1,-14.3c-1.5,-0.9 -4.1,-2.2 -5.6,-2.9c-1.6,-0.7 -2.8,-1.3 -2.7,-1.3c0.2,-0.2 6.1,1.5 8.4,2.5c3.5,1.4 4.1,1.5 4.5,1.4c0.3,-0.3 0.5,-1.1 0.6,-3.6z" id="svg_27"/>
    <path stroke="null" class="st0" d="m324.35334,299.95601c-4.2,-5.8 -6.9,-14.8 -6.3,-21.5l0.2,-2.1l1,0.2c1.8,0.3 4.9,1.5 6.4,2.4c4,2.4 5.8,5.7 7.5,13.9c0.5,2.4 1.2,5.2 1.5,6.1c0.5,1.5 2.4,5 4,7.2c1.1,1.6 0.4,2.4 -2.1,2.2c-3.8,-0.4 -8.9,-3.9 -12.2,-8.4z" id="svg_26"/>
    <path stroke="null" class="st0" d="m391.18275,344.80895c-19.8,-8 -26.8,-14.9 -26.8,-26.6c0,-1.7 0.1,-3.1 0.1,-3.1c0.1,0 0.8,0.6 1.7,1.3c4,3.2 8.5,4.6 21,6.4c7.3,1.1 11.5,1.9 15.3,3.2c12.1,4 19.6,12.2 21.4,23.3c0.5,3.2 0.2,9.3 -0.6,12.5c-0.7,2.5 -2.7,7.1 -3.2,7.2c-0.1,0 -0.3,-0.5 -0.3,-1.3c-0.2,-4.2 -2.3,-8.2 -5.8,-11.3c-4.2,-3.6 -9.6,-6.3 -22.8,-11.6z" id="svg_25"/>
    <path stroke="null" class="st0" d="m370.12393,345.75601c-0.2,-1.5 -0.7,-3.4 -1,-4.2l-0.5,-1.5l0.9,1.1c1.3,1.5 2.3,3.3 3.2,5.8c0.7,1.9 0.7,2.5 0.7,5.6c0,3 -0.1,3.7 -0.7,5.4c-1,2.7 -2.2,4.6 -4.2,6.7c-3.6,3.7 -8.3,5.7 -15,6.6c-1.2,0.1 -4.6,0.4 -7.6,0.6c-7.5,0.4 -12.5,1.2 -17,2.8c-0.6,0.2 -1.2,0.4 -1.3,0.3c-0.2,-0.2 2.9,-2 5.4,-3.2c3.5,-1.7 7.1,-2.6 15,-4c3.9,-0.6 7.9,-1.4 8.9,-1.8c9.9,-3.1 14.8,-10.8 13.2,-20.2z" id="svg_24"/>
    <path stroke="null" class="st0" d="m382.57687,366.38542c-2.6,-5.7 -3.2,-11.1 -1.8,-16.2c0.2,-0.5 0.4,-1 0.6,-1c0.2,0 0.8,0.3 1.4,0.7c1.2,0.8 3.7,2.2 10.1,5.7c8.1,4.4 12.7,7.8 15.9,11.7c2.8,3.4 4.5,7.3 5.3,12.1c0.5,2.7 0.2,9.2 -0.5,11.9c-2.2,8.5 -7.2,15.3 -14.5,19.2c-1.1,0.6 -2,1 -2.1,1c-0.1,0 0.3,-1 0.9,-2.2c2.4,-5.1 2.7,-10 0.9,-15.5c-1.1,-3.4 -3.4,-7.5 -8,-14.4c-5.5,-8 -6.8,-10.1 -8.2,-13z" id="svg_23"/>
    <path transform="rotate(-3.6192 335.923 398.634)" stroke="null" class="st0" d="m299.01804,390.45601c7.4,-6.2 16.5,-10.6 24.9,-12c3.6,-0.6 9.6,-0.4 12.9,0.5c5.3,1.4 10.1,4.4 12.6,8.1c2.4,3.6 3.5,6.7 4.6,13.6c0.4,2.7 0.9,5.5 1,6.1c0.8,3.6 2.4,6.4 4.4,7.9c3.1,2.3 8.5,2.4 13.8,0.4c0.9,-0.3 1.7,-0.6 1.7,-0.5c0.2,0.2 -2.5,2 -4.3,2.9c-2.5,1.3 -4.5,1.7 -7.2,1.7c-4.8,0 -8.9,-2.5 -12.2,-7.5c-0.7,-1 -2.1,-3.9 -3.3,-6.6c-3.5,-8.1 -5.3,-10.5 -9.4,-13.2c-3.6,-2.3 -8.2,-2.8 -11.7,-1.1c-4.6,2.2 -5.8,8.1 -2.6,11.7c1.3,1.5 3.7,2.7 5.7,3c3.7,0.5 6.9,-2.4 6.9,-6.1c0,-2.4 -0.9,-3.8 -3.3,-4.9c-3.2,-1.4 -6.7,0.2 -6.6,3.3c0,1.3 0.6,2.1 1.9,2.7c0.8,0.4 0.8,0.4 0.2,0.3c-2.9,-0.6 -3.6,-4.2 -1.3,-6.5c2.8,-2.8 8.7,-1.6 10.7,2.3c0.8,1.6 0.9,4.8 0.2,6.8c-1.7,4.4 -6.5,6.7 -11.4,5.4c-3.3,-0.9 -4.7,-1.8 -8.7,-5.9c-7,-7.2 -9.7,-8.6 -19.7,-10.1l-1.9,-0.3l2.1,-2z" id="svg_22"/>
    <path stroke="null" class="st1" d="m250.58632,251.01375c24.45168,23.32456 62.12616,59.5889 64.01513,61.56696c1.57414,1.64838 0.94449,3.21434 -1.67909,4.3682c-1.4692,0.65935 -4.51254,1.3187 -5.98174,1.3187c-1.67909,0 -3.673,-0.65935 -5.03726,-1.7308c-0.94449,-0.74177 -5.03726,-5.43965 -14.27223,-16.73105c-7.03117,-8.65399 -13.01291,-15.82444 -13.11786,-15.90686c-0.41977,-0.16484 -0.41977,-0.16484 12.38326,17.80249c8.0806,11.2914 10.70417,15.32992 10.70417,15.82444c0,1.07145 -0.41977,1.64838 -2.09886,3.13192c-2.83346,2.47257 -4.09277,5.27481 -5.03726,11.12656c-1.04943,6.5111 -3.88289,11.12656 -11.96348,18.95636c-4.72243,4.61546 -5.45703,5.43965 -6.6114,7.33529c-1.4692,2.30773 -1.88897,3.62643 -2.09886,6.59352c-0.20989,3.13192 0.20989,5.10997 1.36426,8.07706c1.04943,2.63741 2.2038,4.3682 5.03726,7.74738c2.41369,2.96708 3.88289,5.19239 3.88289,6.01658c0,0.65935 0.20989,0.65935 3.98783,0c9.02508,-1.64838 16.47603,-4.45062 20.5688,-7.91222c2.51863,-2.14289 3.14829,-3.29676 3.14829,-6.26384c0,-1.89564 -0.10494,-2.30773 -0.7346,-3.4616c-1.04943,-1.81322 -3.04334,-3.29676 -7.346,-5.60449c-5.66691,-3.0495 -8.0806,-5.52207 -8.71026,-8.81883c-0.52471,-2.80224 0.10494,-4.69788 3.25323,-9.89027c3.25323,-5.35723 4.09277,-7.58254 4.61749,-13.02219c0.31483,-3.4616 0.83954,-4.86272 2.09886,-5.93416c1.36426,-1.15387 2.51863,-1.56596 5.77186,-1.89564c5.35208,-0.57693 8.8152,-1.64838 11.54371,-3.70885c2.41369,-1.7308 3.46311,-3.4616 3.56806,-6.01658l0.10494,-1.89564l-1.36426,-1.15387c-4.93231,-4.45062 -73.2501,-63.46259 -73.56493,-63.46259c-0.10494,0 1.57414,1.56596 3.56806,3.54401l-0.00001,0.00001zm32.21745,117.19975c1.15437,-1.56596 0.52471,-3.54401 -1.36426,-4.53304c-1.78403,-0.90661 -4.51254,-0.49451 -4.51254,0.74177c0,0.32968 0.20989,0.65935 0.83954,0.82419c0.94449,0.41209 1.04943,0.82419 0.31483,1.7308c-0.7346,0.90661 -0.7346,1.7308 0.20989,2.30773c1.4692,0.90661 3.46311,0.41209 4.51254,-1.07145z" id="svg_21" opacity="0.99"/>
    <path stroke="null" class="st1" d="m324.97099,324.50895c-2.4,0.7 -4.7,3.3 -5.4,5.9c-0.4,1.6 -0.2,4.5 0.5,5.4c1.1,1.4 2.1,1.8 4.9,1.8c5.5,0 10.2,-2.4 10.7,-5.3c0.5,-2.4 -1.6,-5.7 -4.5,-7.2c-1.5,-0.8 -4.6,-1.1 -6.2,-0.6zm6.4,5c0.8,-1.2 0.5,-2.5 -1,-3.4c-2.7,-1.7 -6.8,-0.3 -6.8,2.3c0,1.3 2.1,2.7 4.1,2.7c1.3,0 3.1,-0.8 3.7,-1.6z" id="svg_20"/>
    <polyline stroke="null" points="332.0013122558594,240.35214775800705 332.0013122558594,240.35214775800705 " id="svg_19" fill="none" stroke-linecap="round"/>
    <path stroke="null" id="svg_18" d="m299.0014,250.35208c0,0 0.07612,-0.38268 1,0c1.30656,0.5412 1,2 1,5c0,3 0.45951,5.0535 0,7c-0.51374,2.17625 -2,4 -2,6c0,3 -0.76537,6.15224 0,8c0.54119,1.30656 2,2 2,4l0,0" fill="none"/>
    <path stroke="null" id="svg_17" d="m319.0014,259.35208c2,1 4.12703,1.67862 7,3c5.29749,2.4365 10.25406,5.35724 16,8c5.29749,2.4365 10.87856,5.49346 14,6c1.97417,0.32037 3,0 3,0l1,0" fill="none"/>
    <line stroke="null" x1="285.0014" y1="242.35208" x2="352.0014" y2="303.35208" id="svg_16" fill="none"/>
   </g>
  </g>
 </g>

</svg>